<svg width="84" height="84" viewBox="0 0 84 84" fill="none" xmlns="http://www.w3.org/2000/svg">
<g clip-path="url(#clip0_521_11958)">
<g filter="url(#filter0_d_521_11958)">
<path fill-rule="evenodd" clip-rule="evenodd" d="M68.8241 12.4954V5.21887C68.8241 4.29061 68.4553 3.40038 67.799 2.744C67.1426 2.08762 66.2523 1.71887 65.3241 1.71887C64.3958 1.71887 63.5056 2.08762 62.8492 2.744C62.1928 3.40038 61.8241 4.29061 61.8241 5.21887V12.4954H55.4226C53.5661 12.4954 51.7856 13.2329 50.4728 14.5456C49.1601 15.8584 48.4226 17.6389 48.4226 19.4954V31.7944C48.4226 33.6509 49.1601 35.4314 50.4728 36.7441C51.7856 38.0569 53.5661 38.7944 55.4226 38.7944H75.2326C77.0891 38.7944 78.8696 38.0569 80.1823 36.7441C81.4951 35.4314 82.2326 33.6509 82.2326 31.7944V19.4954C82.2326 17.6389 81.4951 15.8584 80.1823 14.5456C78.8696 13.2329 77.0891 12.4954 75.2326 12.4954H68.8276H68.8241ZM44.7861 13.4089C43.7251 15.2604 43.1687 17.3579 43.1726 19.4919V31.7909C43.1726 35.0398 44.4632 38.1556 46.7605 40.4529C49.0578 42.7502 52.1737 44.0409 55.4226 44.0409H71.9566V58.3629C71.9566 60.6835 71.0347 62.9091 69.3938 64.5501C67.7528 66.191 65.5272 67.1129 63.2066 67.1129H38.6366C38.3943 67.1131 38.1548 67.1636 37.9331 67.2612C37.7114 67.3588 37.5123 67.5014 37.3486 67.6799L25.5186 80.5774C22.2811 84.1054 16.3976 81.8129 16.3976 77.0284V67.1129H10.5176C9.36851 67.1129 8.2307 66.8865 7.1691 66.4468C6.1075 66.0071 5.14291 65.3626 4.33039 64.5501C2.68945 62.9091 1.76758 60.6835 1.76758 58.3629V22.1554C1.76758 19.8347 2.68945 17.6091 4.33039 15.9682C5.97134 14.3272 8.19693 13.4054 10.5176 13.4054H44.7861V13.4089ZM56.3956 27.8884C56.3956 28.5846 56.6721 29.2522 57.1644 29.7445C57.6567 30.2368 58.3244 30.5134 59.0206 30.5134C59.7168 30.5134 60.3845 30.2368 60.8767 29.7445C61.369 29.2522 61.6456 28.5846 61.6456 27.8884V23.4084C61.6456 22.7122 61.369 22.0445 60.8767 21.5522C60.3845 21.0599 59.7168 20.7834 59.0206 20.7834C58.3244 20.7834 57.6567 21.0599 57.1644 21.5522C56.6721 22.0445 56.3956 22.7122 56.3956 23.4084V27.8884ZM71.6311 30.5134C70.9349 30.5134 70.2672 30.2368 69.7749 29.7445C69.2826 29.2522 69.0061 28.5846 69.0061 27.8884V23.4084C69.0061 22.7122 69.2826 22.0445 69.7749 21.5522C70.2672 21.0599 70.9349 20.7834 71.6311 20.7834C72.3273 20.7834 72.995 21.0599 73.4872 21.5522C73.9795 22.0445 74.2561 22.7122 74.2561 23.4084V27.8884C74.2561 28.5846 73.9795 29.2522 73.4872 29.7445C72.995 30.2368 72.3273 30.5134 71.6311 30.5134Z" fill="#0073BE"/>
</g>
</g>
<defs>
<filter id="filter0_d_521_11958" x="-0.232422" y="1.71887" width="84.4648" height="84.5697" filterUnits="userSpaceOnUse" color-interpolation-filters="sRGB">
<feFlood flood-opacity="0" result="BackgroundImageFix"/>
<feColorMatrix in="SourceAlpha" type="matrix" values="0 0 0 0 0 0 0 0 0 0 0 0 0 0 0 0 0 0 127 0" result="hardAlpha"/>
<feOffset dy="2"/>
<feGaussianBlur stdDeviation="1"/>
<feComposite in2="hardAlpha" operator="out"/>
<feColorMatrix type="matrix" values="0 0 0 0 0 0 0 0 0 0 0 0 0 0 0 0 0 0 0.12 0"/>
<feBlend mode="normal" in2="BackgroundImageFix" result="effect1_dropShadow_521_11958"/>
<feBlend mode="normal" in="SourceGraphic" in2="effect1_dropShadow_521_11958" result="shape"/>
</filter>
<clipPath id="clip0_521_11958">
<rect width="84" height="84" fill="white"/>
</clipPath>
</defs>
</svg>
