<svg width="80" height="81" viewBox="0 0 80 81" fill="none" xmlns="http://www.w3.org/2000/svg">
<path d="M23.3333 56.9998H56.6667V59.0001H23.3333V56.9998ZM23.3333 65.6668H56.6667V63.6665H23.3333V65.6668ZM23.3333 52.3335H56.6667V50.3331H23.3333V52.3335ZM38.3333 43.6665H23.3333V45.6668H38.3333V43.6665ZM64.3335 24.6666V72.8331C64.3335 73.3857 63.8859 73.8333 63.3333 73.8333H16.6667C16.1141 73.8333 15.6665 73.3857 15.6665 72.8331V8.16679C15.6665 7.61463 16.1141 7.16663 16.6667 7.16663H46.6667C46.9303 7.16663 47.1826 7.27079 47.3706 7.45638L64.0373 23.9558C64.2268 24.1438 64.3335 24.3997 64.3335 24.6666ZM47.6668 23.6665H60.9017L47.6668 10.564V23.6665ZM62.3332 71.833V25.6668H46.6667C46.1141 25.6668 45.6665 25.2188 45.6665 24.6666V9.16696H17.6668V71.833H62.3332Z" fill="#666666"/>
</svg>
