<svg width="65" height="65" viewBox="0 0 65 65" fill="none" xmlns="http://www.w3.org/2000/svg">
<path d="M61.2645 30.243L56.3353 28.8292L55.6488 26.4095C56.8956 25.1637 57.6865 23.9142 58.0711 22.5649C59.575 21.6316 59.575 19.7459 59.575 19.0884C59.575 18.4746 59.3601 17.9024 58.9994 17.4472C59.2962 16.4558 59.8536 14.3955 59.8506 12.9169C59.8483 11.8344 59.4559 10.9148 58.7149 10.2577C57.7123 9.36743 56.1042 8.99695 54.1961 9.20846C54.0927 9.18656 53.8381 9.02983 53.6494 8.91433C52.6182 8.28141 50.9512 7.27095 47.4438 8.53984C47.3969 8.47359 47.3595 8.39795 47.311 8.33306C43.7189 3.5257 37.9743 0.418426 32.6757 0.417223H32.6718C28.7757 0.417223 25.4233 2.0096 22.9203 5.01493C22.909 4.92654 22.8991 4.83959 22.8918 4.76756C22.8768 4.62423 22.862 4.48403 22.8456 4.37831C22.7629 3.71996 22.4054 3.12233 21.8649 2.73853C21.335 2.3622 20.67 2.22552 19.9971 2.36805C19.0599 2.56977 18.8535 2.53488 18.7294 2.32145L18.2676 1.55698C17.9316 1.0005 17.3746 0.604108 16.739 0.469038C16.1029 0.331961 15.4333 0.469038 14.901 0.840322L14.1463 1.36633C14.0049 1.47092 13.8068 1.51086 12.9377 0.840724C12.4051 0.46984 11.7358 0.332363 11.099 0.469038C10.4637 0.604189 9.90643 1.0005 9.57036 1.55658L9.09962 2.33597C8.98291 2.53809 8.771 2.58935 7.77746 2.35474C7.13909 2.2333 6.47175 2.38096 5.94615 2.76324C5.42054 3.14511 5.07316 3.73376 4.99247 4.37799L4.8793 5.28154C4.85427 5.51262 4.6807 5.64657 3.6789 5.8369C3.04597 5.98496 2.49695 6.39226 2.17226 6.955C1.84758 7.51743 1.7693 8.19647 1.96982 8.85522C2.2945 9.78732 2.26707 9.9961 2.06222 10.1457L1.35101 10.6846C0.833266 11.0771 0.497193 11.6723 0.429497 12.3181C0.361721 12.9644 0.566172 13.6168 1.02047 14.1408C1.68548 14.8422 1.75085 15.0662 1.62749 15.2781L1.19669 16.0603C0.882995 16.6289 0.818348 17.3096 1.01887 17.9272C1.21979 18.5452 1.67217 19.0579 2.29482 19.3496C3.20575 19.7342 3.34282 19.894 3.3178 20.1423L3.24144 21.0341C3.18698 21.6783 3.40322 22.3241 3.83474 22.8059C4.26827 23.2895 4.8898 23.5762 5.54077 23.5923C6.37326 23.6124 6.92501 23.624 7.29854 23.6309C7.7299 24.7593 8.40309 25.7815 9.28763 26.6321L8.66449 28.8293L3.73528 30.2432C1.78141 30.8032 0.416504 32.6141 0.416504 34.6468V39.8995C0.416504 40.1493 0.514037 40.3898 0.687928 40.5692C3.08159 43.0395 5.90444 44.7112 9.07885 45.5683V54.1035C9.07885 54.3533 9.17638 54.5938 9.35027 54.7732C15.4822 61.0998 23.7036 64.5838 32.4998 64.5838C41.2961 64.5838 49.5175 61.0998 55.649 54.7732C55.8237 54.5939 55.9208 54.3534 55.9208 54.1035V45.5683C59.0944 44.7113 61.9173 43.0395 64.3113 40.5692C64.486 40.3899 64.5832 40.1494 64.5832 39.8995V34.6468C64.5832 32.6137 63.2181 30.8026 61.2645 30.243ZM52.6422 10.5548C53.1239 10.8506 53.6205 11.1552 54.3497 11.1286C55.7001 10.9688 56.8562 11.1814 57.4374 11.6976C57.7648 11.9882 57.9246 12.3881 57.9254 12.9207C57.9279 13.978 57.5521 15.501 57.2769 16.4742C57.16 16.4641 56.9679 16.4528 56.6338 16.442L56.485 15.5972C56.3033 14.5653 55.4104 13.7961 54.3631 13.7682L52.1769 13.7102L52.1252 15.6347L54.3122 15.6927C54.4492 15.6963 54.566 15.7969 54.5895 15.9313L54.8753 17.5527C54.9552 18.0066 55.3453 18.3399 55.8066 18.3477C56.3362 18.3571 56.9925 18.3771 57.0818 18.3857C57.4108 18.4515 57.6496 18.7472 57.6496 19.0884C57.6496 20.7031 57.1288 20.9161 56.8789 21.0183C56.5852 21.1386 56.3698 21.3959 56.3024 21.706C55.9906 23.148 55.0523 24.484 53.3486 25.9095C52.5482 26.5796 51.1179 26.9176 49.8716 26.73C49.2729 26.6404 48.5014 26.4008 47.8332 25.8055C48.4362 24.2076 48.9194 22.5124 49.2309 20.8138C49.9873 16.6902 49.6782 13.0342 48.4041 10.2377C50.8044 9.43529 51.813 10.0464 52.6422 10.5548ZM23.9708 6.77317C26.1393 3.87428 29.1483 2.34214 32.6719 2.34214H32.6754C37.3877 2.34335 42.5276 5.14711 45.7696 9.48526C48.7675 13.4971 47.9063 20.6671 45.6602 26.0431L45.5722 26.1002C45.5842 26.1186 45.5986 26.1348 45.6108 26.1531C44.8805 27.878 44.0109 29.4169 43.079 30.5954L40.1401 30.5917L40.084 30.4C42.2497 28.4767 43.7674 25.9246 44.4091 23.016C45.0005 20.3325 44.4451 16.8046 44.4208 16.6558C44.3456 16.1878 43.9414 15.8514 43.4715 15.8514C43.448 15.851 43.4221 15.853 43.3955 15.8545C31.5471 15.5044 28.4845 14.0056 24.1455 9.06232L22.6988 10.332C27.2991 15.5733 30.7247 17.3408 42.6217 17.7555C42.7423 18.8792 42.8872 20.9764 42.5293 22.6017C41.8423 25.7169 40.0071 28.3714 37.3619 30.0766L35.4906 31.2832C33.6961 32.4413 31.3752 32.4417 29.5788 31.2828L27.708 30.0766C25.1 28.3949 23.2644 25.7372 22.5391 22.5927C21.8154 19.4549 22.9218 14.046 22.9331 13.9915L21.0485 13.5999C20.9988 13.838 19.8442 19.4749 20.6631 23.0251C21.328 25.9069 22.8151 28.428 24.9086 30.3275L24.8325 30.5959H20.7994C16.9789 24.4777 16.0695 14.1118 19.0084 9.32829C20.0224 7.67872 21.3947 6.94514 23.0839 7.15232C23.4324 7.19699 23.7647 7.04933 23.9708 6.77317ZM32.5 45.5537C31.4085 45.5537 30.4411 45.0125 29.9128 44.1054C28.8268 42.2423 26.0192 36.8797 25.3919 35.6787L26.5457 31.6089C26.5867 31.6359 28.5358 32.9006 28.5358 32.9006C29.7506 33.6847 31.1426 34.0763 32.5348 34.0763C33.9271 34.0755 35.319 33.6839 36.5338 32.9006C36.5338 32.9006 38.4334 31.673 38.4485 31.6633L39.6182 35.6592C39.0148 36.8151 36.18 42.2301 35.0871 44.1054C34.5592 45.0125 33.5919 45.5537 32.5 45.5537ZM8.81817 22.0377C8.54482 20.8217 8.82362 17.4669 9.22354 15.9438C9.24664 15.8556 9.27207 15.7903 9.29404 15.7452C9.40449 15.7899 9.62266 15.9085 9.96491 16.2214C11.7786 17.8784 13.7893 16.9777 14.5988 16.2688L13.3377 14.8142C13.0866 15.0261 12.1929 15.6488 11.2636 14.8005C10.9181 14.4852 9.86465 13.5253 8.7171 13.8637C8.06188 14.0567 7.58055 14.6219 7.36166 15.4545C6.99463 16.8527 6.66698 19.8481 6.82916 21.6959C6.50512 21.6891 6.10223 21.6801 5.58826 21.6675C5.42062 21.6636 5.31603 21.5739 5.26831 21.5207C5.22211 21.4689 5.14615 21.3578 5.15978 21.198L5.23422 20.3223C5.41204 18.576 3.87132 17.9254 3.07862 17.5918C2.93015 17.5221 2.87184 17.3995 2.84986 17.3325C2.82829 17.2655 2.80366 17.1324 2.88275 16.9883L3.30144 16.2281C4.19873 14.6957 2.95093 13.3786 2.4473 12.849C2.34038 12.7253 2.33685 12.5894 2.34391 12.5193C2.35137 12.4496 2.38305 12.3176 2.51267 12.2193L3.21217 11.6895C4.63386 10.6516 4.06245 9.01066 3.80001 8.25983C3.75261 8.10319 3.80434 7.97782 3.83955 7.91718C3.87477 7.85607 3.95746 7.74843 4.07649 7.71979C4.89694 7.56467 6.60418 7.24199 6.79098 5.50428L6.90263 4.61717C6.9226 4.45507 7.02094 4.36179 7.07773 4.32072C7.13492 4.27958 7.25242 4.21573 7.37418 4.2365C8.18765 4.42956 9.87836 4.82948 10.7556 3.31691L11.2178 2.55205C11.3028 2.41184 11.4304 2.36645 11.4994 2.35193C11.5683 2.33821 11.7038 2.3269 11.7994 2.39227C12.4123 2.86574 13.848 3.97374 15.2673 2.93119L16.0009 2.42011C16.1353 2.3273 16.2703 2.33749 16.3389 2.35193C16.4075 2.36637 16.5351 2.41184 16.6201 2.55205L17.0717 3.29887C17.9243 4.78048 19.5351 4.43582 20.4437 4.24116C20.5796 4.2126 20.685 4.26113 20.7504 4.30773C20.8522 4.38016 20.9199 4.49301 20.9392 4.64412C20.9548 4.74631 20.9654 4.85443 20.9768 4.96488C20.9904 5.09674 21.0057 5.24111 21.0282 5.39126C19.567 5.78332 18.3239 6.76539 17.3681 8.32047C14.8633 12.3972 14.7697 19.7471 16.6862 26.0109C15.8363 26.5947 13.7076 27.4312 11.5628 26.0026C10.1411 25.0564 9.16715 23.6509 8.81817 22.0377ZM2.34199 34.6465C2.34199 33.4677 3.13308 32.4181 4.2657 32.093L9.70992 30.5319C10.0303 30.4402 10.2801 30.1896 10.3706 29.8692L10.936 27.8745C12.0658 28.5164 13.1547 28.7253 14.0892 28.7253C14.6336 28.7253 15.1255 28.6552 15.5426 28.5597C16.2157 28.4058 16.8169 28.1567 17.3211 27.873C17.9129 29.4036 18.633 30.835 19.4758 32.0938C19.6545 32.3609 19.9545 32.5211 20.2756 32.5211H24.2863L23.5615 35.0773L14.4245 37.6974C11.6629 38.4892 9.63292 40.8316 9.17662 43.6057C6.62054 42.844 4.32658 41.4687 2.3419 39.5036L2.34199 34.6465ZM11.0043 44.79C11.0043 42.3704 12.6289 40.2141 14.9548 39.5475L23.9009 36.9825C24.8059 38.7119 27.2272 43.3204 28.2499 45.0751C28.9645 46.3018 30.1561 47.1157 31.5373 47.3782V62.6347C23.76 62.3941 16.5133 59.2549 11.0043 53.7099V44.79ZM53.9957 53.71C48.4867 59.255 41.24 62.3942 33.4627 62.6347V47.3781C34.8438 47.1154 36.0351 46.3015 36.7509 45.0743C37.7736 43.3185 40.1985 38.7028 41.1015 36.9777L50.0448 39.542C52.3711 40.2087 53.9957 42.365 53.9957 44.7845V53.71ZM62.658 39.5036C60.6733 41.4684 58.3795 42.8437 55.824 43.6054C55.3694 40.8292 53.3392 38.4841 50.5758 37.6919L41.4529 35.0757L40.7039 32.5176L43.5326 32.521H43.5342C43.8162 32.521 44.084 32.3973 44.2666 32.1826C45.2999 30.97 46.2504 29.3931 47.0624 27.6338C47.7931 28.1455 48.6463 28.4925 49.5866 28.6336C49.9172 28.6833 50.2532 28.7072 50.5884 28.7072C51.8353 28.7072 53.074 28.3704 54.0353 27.774L54.6294 29.8692C54.7203 30.1895 54.9701 30.4402 55.2897 30.5318L60.7335 32.0933C61.8669 32.418 62.658 33.4676 62.658 34.6465V39.5036Z" fill="#999999"/>
</svg>
