<svg width="133" height="19" viewBox="0 0 133 19" fill="none" xmlns="http://www.w3.org/2000/svg">
<g clip-path="url(#clip0_13_643)">
<path d="M129.654 0.381407V2.86131C128.133 1.03001 125.89 0 123.267 0C117.981 0 114.141 4.19669 114.141 9.49999C114.141 14.8033 117.981 19 123.267 19C125.89 19 128.133 17.9697 129.654 16.1384V18.6183H133V0.381407H129.654ZM123.647 15.6425C120.073 15.6425 117.639 13.0099 117.639 9.49999C117.639 5.99007 120.073 3.35753 123.647 3.35753C127.221 3.35753 129.654 5.98981 129.654 9.49999C129.654 13.0102 127.221 15.6425 123.647 15.6425ZM110.871 0.0763241L112.924 3.35751C109.35 3.35751 107.602 4.80712 107.602 7.74503V18.6183H104.179V7.24885C104.179 3.20484 106.537 0.495913 110.871 0.0763241ZM91.3282 0C85.8531 0 81.8227 4.19669 81.8227 9.49999C81.8227 14.8033 85.8531 19 91.3282 19C96.8032 19 100.834 14.8031 100.834 9.49999C100.834 4.19692 96.8033 0 91.3282 0ZM91.3282 15.6425C87.7542 15.6425 85.3208 13.0099 85.3208 9.49999C85.3208 5.99007 87.7542 3.35753 91.3282 3.35753C94.9021 3.35753 97.3355 5.98981 97.3355 9.49999C97.3355 13.0102 94.9021 15.6425 91.3282 15.6425ZM65.4733 9.49999C65.4733 13.0099 67.8688 15.6425 71.3667 15.6425C73.8001 15.6425 75.6632 14.498 76.6897 12.5903L79.4654 14.5361C77.9066 17.2066 74.9407 19 71.3667 19C66.0058 19 61.9753 14.8031 61.9753 9.49998C61.9753 4.1969 66.0058 0 71.3667 0C74.9407 0 77.9066 1.79312 79.4654 4.46387L76.6897 6.40966C75.6632 4.50204 73.8001 3.35753 71.3667 3.35753C67.8688 3.35753 65.4733 5.98981 65.4733 9.49999ZM58.6293 8.05013V18.6183H55.2075V8.27911C55.2075 5.15063 53.6107 3.35751 50.3027 3.35751C46.9947 3.35751 45.398 5.15063 45.398 8.27911V18.6183H41.9759V8.05013C41.9759 3.20485 44.9798 0 50.3027 0C55.6256 0 58.6293 3.20484 58.6293 8.05013ZM38.6301 9.53819C38.6301 9.95776 38.6301 10.4155 38.5921 10.9496H26.0829L28.0601 7.8214H34.942C34.5236 5.07432 32.2804 3.35753 29.2768 3.35753C25.7786 3.35753 23.3452 5.98981 23.3452 9.49999C23.3452 13.0102 25.7786 15.6425 29.2768 15.6425C31.5199 15.6425 33.3069 14.6506 34.4095 13.0481L37.0711 15.1466C35.4363 17.4738 32.6605 19 29.2768 19C23.8395 19 19.8473 14.8412 19.8473 9.49999C19.8473 4.19669 23.8775 0 29.2768 0C34.904 0 38.6301 4.04428 38.6301 9.53819ZM3.49791 9.49999C3.49791 13.0099 5.89323 15.6425 9.3914 15.6425C11.8248 15.6425 13.6878 14.498 14.7143 12.5903L17.49 14.5361C15.931 17.2066 12.9654 19 9.3914 19C4.03017 19 0 14.8031 0 9.49999C0 4.19693 4.03017 0 9.3914 0C12.9654 0 15.931 1.79312 17.49 4.46387L14.7143 6.40966C13.6878 4.50204 11.8248 3.35753 9.3914 3.35753C5.89323 3.35753 3.49791 5.98981 3.49791 9.49999Z" fill="white"/>
</g>
<defs>
<clipPath id="clip0_13_643">
<rect width="133" height="19" fill="white"/>
</clipPath>
</defs>
</svg>
