<svg width="86" height="85" viewBox="0 0 86 85" fill="none" xmlns="http://www.w3.org/2000/svg">
<g filter="url(#filter0_d_360_1888)">
<path fill-rule="evenodd" clip-rule="evenodd" d="M70.4627 11.7928V4.3431C70.4627 3.39274 70.0851 2.48131 69.4131 1.8093C68.7411 1.13729 67.8297 0.759766 66.8793 0.759766C65.929 0.759766 65.0175 1.13729 64.3455 1.8093C63.6735 2.48131 63.296 3.39274 63.296 4.3431V11.7928H56.7421C54.8414 11.7928 53.0185 12.5479 51.6745 13.8919C50.3305 15.2359 49.5754 17.0588 49.5754 18.9595V31.5513C49.5754 33.4521 50.3305 35.2749 51.6745 36.6189C53.0185 37.963 54.8414 38.718 56.7421 38.718H77.0237C78.9245 38.718 80.7473 37.963 82.0913 36.6189C83.4353 35.2749 84.1904 33.4521 84.1904 31.5513V18.9595C84.1904 17.0588 83.4353 15.2359 82.0913 13.8919C80.7473 12.5479 78.9245 11.7928 77.0237 11.7928H70.4662H70.4627ZM45.8523 12.7281C44.7661 14.6237 44.1965 16.7712 44.2004 18.9559V31.5478C44.2004 34.874 45.5218 38.064 47.8738 40.4161C50.2258 42.7681 53.4158 44.0894 56.7421 44.0894H73.6697V58.7524C73.6697 61.1283 72.7259 63.4069 71.0459 65.0869C69.3659 66.7669 67.0873 67.7108 64.7114 67.7108H39.5564C39.3084 67.711 39.0631 67.7627 38.8361 67.8626C38.6092 67.9625 38.4054 68.1085 38.2377 68.2913L26.1261 81.4958C22.8115 85.1078 16.7879 82.7608 16.7879 77.8624V67.7108H10.7679C9.59148 67.7108 8.42657 67.4791 7.3397 67.0289C6.25282 66.5787 5.26526 65.9188 4.43341 65.0869C2.75339 63.4069 1.80957 61.1283 1.80957 58.7524V21.6828C1.80957 19.3069 2.75339 17.0284 4.43341 15.3483C6.11342 13.6683 8.39201 12.7245 10.7679 12.7245H45.8523V12.7281ZM57.7382 27.5523C57.7382 28.2651 58.0214 28.9487 58.5254 29.4527C59.0294 29.9567 59.713 30.2398 60.4257 30.2398C61.1385 30.2398 61.8221 29.9567 62.3261 29.4527C62.8301 28.9487 63.1132 28.2651 63.1132 27.5523V22.9657C63.1132 22.2529 62.8301 21.5693 62.3261 21.0653C61.8221 20.5613 61.1385 20.2782 60.4257 20.2782C59.713 20.2782 59.0294 20.5613 58.5254 21.0653C58.0214 21.5693 57.7382 22.2529 57.7382 22.9657V27.5523ZM73.3365 30.2398C72.6237 30.2398 71.9401 29.9567 71.4361 29.4527C70.9321 28.9487 70.649 28.2651 70.649 27.5523V22.9657C70.649 22.2529 70.9321 21.5693 71.4361 21.0653C71.9401 20.5613 72.6237 20.2782 73.3365 20.2782C74.0493 20.2782 74.7328 20.5613 75.2368 21.0653C75.7408 21.5693 76.024 22.2529 76.024 22.9657V27.5523C76.024 28.2651 75.7408 28.9487 75.2368 29.4527C74.7328 29.9567 74.0493 30.2398 73.3365 30.2398Z" fill="#0391D7"/>
</g>
<defs>
<filter id="filter0_d_360_1888" x="-0.19043" y="0.759766" width="86.3809" height="86.4883" filterUnits="userSpaceOnUse" color-interpolation-filters="sRGB">
<feFlood flood-opacity="0" result="BackgroundImageFix"/>
<feColorMatrix in="SourceAlpha" type="matrix" values="0 0 0 0 0 0 0 0 0 0 0 0 0 0 0 0 0 0 127 0" result="hardAlpha"/>
<feOffset dy="2"/>
<feGaussianBlur stdDeviation="1"/>
<feComposite in2="hardAlpha" operator="out"/>
<feColorMatrix type="matrix" values="0 0 0 0 0 0 0 0 0 0 0 0 0 0 0 0 0 0 0.12 0"/>
<feBlend mode="normal" in2="BackgroundImageFix" result="effect1_dropShadow_360_1888"/>
<feBlend mode="normal" in="SourceGraphic" in2="effect1_dropShadow_360_1888" result="shape"/>
</filter>
</defs>
</svg>
