<svg width="48" height="48" viewBox="0 0 48 48" fill="none" xmlns="http://www.w3.org/2000/svg">
<rect x="9.15601" y="0.5" width="29.6887" height="24.9674" rx="3.5" fill="white" stroke="#3B3B3B"/>
<rect x="4.43443" y="4.43457" width="39.1314" height="32.8363" rx="3.5" fill="white" stroke="#3B3B3B"/>
<rect x="0.5" y="8.36865" width="47.0003" height="39.1314" rx="3.5" fill="white" stroke="#3B3B3B"/>
<path d="M19.9577 29.4192L17.7952 28.801L17.4647 27.9544C17.4271 27.8582 17.3477 27.7843 17.249 27.7536C17.1498 27.7229 17.043 27.7389 16.9573 27.7969L16.6101 28.0324L16.2618 26.8345C16.9803 26.1926 17.4925 25.3574 17.7312 24.4087C18.3082 24.078 18.6004 23.3439 18.6004 22.2228C18.6004 21.9382 18.5005 21.6811 18.3409 21.4851C18.5804 19.7611 18.7301 18.5044 17.9974 17.614C17.3342 16.8078 16.0015 16.4058 13.5412 16.2695C12.6545 16.22 12.2923 16.4612 12.0269 16.6368C11.8575 16.7492 11.7729 16.8063 11.5525 16.7887C10.4178 16.7032 9.56767 16.8996 9.02495 17.3738C8.63762 17.7119 8.42389 18.1771 8.3896 18.7561C8.34344 19.5369 8.32961 20.4164 8.57845 21.0201C8.64325 21.1777 8.73813 21.3169 8.85385 21.4339C8.66953 21.6355 8.55494 21.9145 8.55494 22.2229C8.55494 23.344 8.84717 24.078 9.42417 24.4087C9.66291 25.3574 10.175 26.1927 10.8935 26.8345L10.5452 28.0325L10.198 27.7969C10.1126 27.739 10.0056 27.7229 9.90635 27.7536C9.80765 27.7843 9.72831 27.8582 9.69069 27.9545L9.36015 28.801L7.19771 29.4192C6.08682 29.7372 5.31075 30.7651 5.31075 31.9188V35.1998C5.31075 35.2883 5.34531 35.3731 5.40695 35.4365C7.57121 37.6651 10.4731 38.8924 13.5776 38.8924C16.6822 38.8924 19.5841 37.6651 21.7483 35.4365C21.81 35.3732 21.8445 35.2883 21.8445 35.1998V31.9188C21.8445 30.7651 21.0685 29.7371 19.9577 29.4192ZM16.9864 28.5983L17.1567 29.0338L15.8697 30.7764L15.0568 29.9075L16.9864 28.5983ZM10.0504 24.103C10.0266 23.9935 9.95061 23.9027 9.84666 23.8603C9.44052 23.6945 9.23453 23.1436 9.23453 22.2228C9.23453 21.9755 9.40762 21.7908 9.56215 21.7908H9.89724V21.1112H9.61029C9.42985 21.0663 9.27945 20.9383 9.20661 20.7612C9.00894 20.2813 9.02857 19.4591 9.06809 18.7963C9.09132 18.4002 9.22347 18.1023 9.47203 17.8853C9.86657 17.5405 10.5694 17.3947 11.5011 17.4663C11.9564 17.5004 12.1914 17.3425 12.4018 17.2035C12.6286 17.0532 12.8417 16.9104 13.5036 16.9479C15.7251 17.0709 16.9493 17.4095 17.4727 18.0456C17.9886 18.6726 17.8969 19.7116 17.7039 21.1295C17.6717 21.126 17.2344 21.1187 17.2344 21.1187C17.2725 20.8915 17.3151 20.6258 17.3295 20.4893C17.3906 19.9157 17.2053 19.4337 16.808 19.1319C16.3129 18.7556 15.5318 18.71 14.7699 19.0119C14.599 19.0796 14.411 19.1673 14.2086 19.262C13.1339 19.7641 11.7964 20.3894 10.4524 19.2195L10.0062 19.7318C11.6836 21.1929 13.3756 20.4011 14.4964 19.8774C14.6853 19.7891 14.8608 19.7068 15.0204 19.6435C15.5542 19.4314 16.0953 19.4432 16.3969 19.6729C16.6035 19.8296 16.6897 20.0801 16.6538 20.4175C16.6328 20.6153 16.5333 21.193 16.4965 21.3988C16.4791 21.4978 16.5062 21.5996 16.5706 21.6766C16.6353 21.7537 16.7304 21.7982 16.831 21.7982H17.6073C17.7774 21.7982 17.9209 21.9926 17.9209 22.2228C17.9209 23.1436 17.7149 23.6944 17.3087 23.8603C17.2048 23.9026 17.1287 23.9934 17.105 24.1029C16.8683 25.1957 16.2208 26.1303 15.2816 26.7344L14.6214 27.1595C13.9872 27.5676 13.1682 27.5677 12.534 27.1594L11.8738 26.7344C10.9346 26.1303 10.2871 25.1957 10.0504 24.103ZM11.4713 27.2812C11.4832 27.289 12.1663 27.7308 12.1663 27.7308C12.5951 28.0069 13.0864 28.1449 13.5777 28.1449C14.069 28.1446 14.5606 28.0067 14.9891 27.7309C14.9891 27.7309 15.6721 27.289 15.6841 27.2812L16.0191 28.4334L14.3312 29.5819C14.3224 29.5878 14.3393 29.5752 14.3312 29.5819C14.0968 29.7742 13.8971 30.0867 13.7228 30.5566C13.6739 30.6883 13.4832 30.6884 13.4342 30.5568C13.2593 30.0876 13.0589 29.775 12.8243 29.5821C12.8161 29.5753 12.8331 29.5881 12.8243 29.5821L11.1362 28.4334L11.4713 27.2812ZM10.169 28.5983L12.0986 29.9074L11.2857 30.7764L9.9987 29.0338L10.169 28.5983ZM21.165 35.0607C19.1404 37.0947 16.4514 38.2128 13.5777 38.2128C10.704 38.2128 8.015 37.0947 5.99037 35.0607V31.9188C5.99037 31.0667 6.56377 30.3075 7.38463 30.0722L9.4789 29.4735L10.9819 31.5085C11.0416 31.5898 11.1348 31.6401 11.2354 31.6459C11.2421 31.6462 11.2484 31.6465 11.255 31.6465C11.3488 31.6465 11.4386 31.6078 11.503 31.5386L12.6015 30.3642C12.6641 30.4721 12.7261 30.606 12.7881 30.7689C12.9131 31.0977 13.2233 31.3097 13.5783 31.3097H13.5791C13.9346 31.3094 14.2448 31.0965 14.3693 30.7673C14.4307 30.605 14.4922 30.4719 14.5542 30.3645L15.6524 31.5386C15.7168 31.6077 15.8067 31.6464 15.9004 31.6464C15.907 31.6464 15.9133 31.6462 15.92 31.6459C16.0206 31.6401 16.1138 31.5898 16.1735 31.5085L17.6765 29.4734L19.7708 30.0722C20.5916 30.3075 21.165 31.0667 21.165 31.9188V35.0607Z" fill="#3B3B3B"/>
<rect x="25.6974" y="16.0002" width="13.5777" height="0.848606" rx="0.424303" fill="#3B3B3B"/>
<rect x="24.0001" y="19.3945" width="17.8207" height="0.848606" rx="0.424303" fill="#3B3B3B"/>
<rect x="27.3946" y="27.8799" width="13.5777" height="0.848606" rx="0.424303" fill="#3B3B3B"/>
<rect x="24.8488" y="34.6692" width="13.5777" height="0.848606" rx="0.424303" fill="#3B3B3B"/>
<rect x="24.0001" y="38.0637" width="13.5777" height="0.848606" rx="0.424303" fill="#3B3B3B"/>
<rect x="24.8488" y="31.2751" width="5.94024" height="0.848606" rx="0.424303" fill="#3B3B3B"/>
<rect x="35.8804" y="31.2751" width="5.94024" height="0.848606" rx="0.424303" fill="#3B3B3B"/>
<circle cx="33.2284" cy="32.0177" r="0.742531" fill="#3B3B3B"/>
<circle cx="40.866" cy="34.5631" r="0.742531" fill="#3B3B3B"/>
</svg>
