<svg width="64" height="65" viewBox="0 0 64 65" fill="none" xmlns="http://www.w3.org/2000/svg">
<path d="M47.0238 36.8155L44.8486 36.1917C44.8763 36.0078 44.9479 35.8405 45.0726 35.7054C45.2991 35.4594 45.6566 35.3519 46.0485 35.4105C46.9268 35.5452 47.8109 35.1605 48.3513 34.4138C48.889 33.6709 48.9749 32.7178 48.5759 31.9268C48.4099 31.5974 48.3995 31.2578 48.5466 30.97C48.6918 30.6855 48.9704 30.4974 49.3305 30.4401C50.2029 30.3014 50.8858 29.72 51.1567 28.8851C51.4659 27.9339 51.1944 26.8483 50.4653 26.1192C50.3038 25.957 50.2419 25.7673 50.2778 25.5391C50.3299 25.2035 50.5845 24.8728 50.9263 24.6966C51.7147 24.2891 52.2049 23.4655 52.2055 22.5466C52.2062 21.627 51.7159 20.8014 50.9269 20.3926C50.5831 20.2152 50.3279 19.8825 50.2765 19.5452C50.2413 19.3193 50.3025 19.1315 50.4639 18.9714C51.1931 18.2458 51.4503 17.2591 51.1514 16.3327C50.8552 15.4147 50.0466 14.7445 49.0414 14.583C48.8031 14.5446 48.5967 14.3861 48.4757 14.1482C48.3552 13.9112 48.3481 13.6524 48.4568 13.4385C48.9249 12.5186 48.8611 11.4984 48.2875 10.7096C47.7139 9.92022 46.7609 9.54656 45.7452 9.70669C45.5167 9.74089 45.3299 9.68096 45.1664 9.51789C44.9255 9.27829 44.807 8.87789 44.8656 8.49736C44.9991 7.61976 44.6208 6.73889 43.8773 6.19856C43.1339 5.65822 42.1785 5.57016 41.3839 5.96776C41.0377 6.14096 40.6183 6.15116 40.3175 5.99609C40.1138 5.89109 39.9973 5.73076 39.962 5.50582C39.8029 4.49016 39.0877 3.63336 38.1397 3.32289C37.3038 3.04909 36.4291 3.25816 35.8012 3.88049C35.5396 4.13976 35.2186 4.25469 34.9021 4.20409C34.5857 4.15349 34.3201 3.94662 34.1528 3.62042C33.7472 2.82976 32.923 2.33802 32.0017 2.33789C32.0014 2.33789 32.0011 2.33789 32.0004 2.33789C31.0785 2.33789 30.2536 2.82876 29.8467 3.61949C29.6781 3.94729 29.4106 4.15556 29.0922 4.20542C28.7765 4.25482 28.4593 4.14016 28.1996 3.88182C27.573 3.25849 26.7015 3.04769 25.8669 3.31962C24.9177 3.62902 24.1991 4.48656 24.0375 5.50422C24.0016 5.73042 23.8844 5.89162 23.6788 5.99709C23.3765 6.15222 22.9595 6.14056 22.6163 5.96809C21.8221 5.56909 20.8678 5.65722 20.1247 6.19696C19.3808 6.73729 19.0009 7.61822 19.1339 8.49676C19.1917 8.87896 19.0733 9.28096 18.8311 9.52082C18.6691 9.68136 18.4803 9.74322 18.2556 9.70669C17.2333 9.54056 16.2901 9.91696 15.7165 10.7025C15.1488 11.4801 15.0818 12.528 15.5414 13.4366C15.6508 13.6524 15.6436 13.9125 15.5225 14.1504C15.4015 14.3871 15.1957 14.545 14.9587 14.5827C13.9399 14.7458 13.1521 15.3962 12.8519 16.3223C12.5505 17.2497 12.8057 18.2393 13.5336 18.9694C13.6957 19.1319 13.7575 19.322 13.7217 19.5505C13.6697 19.8854 13.4151 20.2158 13.0727 20.3926C12.2849 20.8005 11.7947 21.6241 11.7947 22.5427C11.794 23.462 12.2835 24.2874 13.072 24.696C13.4157 24.8742 13.6713 25.2064 13.7231 25.543C13.7578 25.7689 13.6963 25.9574 13.5349 26.1186C12.8077 26.8444 12.5348 27.9259 12.8396 28.8738C13.109 29.7114 13.7921 30.2966 14.6658 30.4398C15.0304 30.4996 15.3112 30.6904 15.4575 30.9779C15.6022 31.2623 15.5903 31.599 15.4249 31.9258C15.0233 32.7185 15.1098 33.6742 15.6509 34.4203C16.1925 35.1664 17.0805 35.546 17.9549 35.4099C18.3475 35.352 18.7179 35.4724 18.951 35.7367C19.0679 35.869 19.1329 36.0262 19.1553 36.1951L16.9758 36.82C14.3599 37.57 12.5331 39.9938 12.5331 42.7152V50.4561C12.5331 50.6638 12.6138 50.8636 12.759 51.0128C17.8553 56.2712 24.6887 59.167 31.9999 59.167C39.3111 59.167 46.1444 56.2712 51.2407 51.0128C51.3859 50.8637 51.4667 50.6638 51.4667 50.4561V42.7106C51.4667 39.9893 49.6397 37.5655 47.0238 36.8155ZM20.1507 34.6781C19.5544 34.0023 18.641 33.6814 17.71 33.8292C17.2797 33.8936 17.0173 33.5792 16.9457 33.4802C16.8747 33.3826 16.6579 33.0326 16.8519 32.6485C17.2484 31.8663 17.2597 30.9931 16.8839 30.253C16.5065 29.51 15.792 29.0034 14.9236 28.861C14.6384 28.8143 14.4498 28.6536 14.3631 28.3838C14.2623 28.0706 14.3169 27.5987 14.6651 27.251C15.1905 26.7266 15.4177 26.0336 15.3045 25.2992C15.1755 24.4624 14.602 23.6869 13.809 23.2755C13.4243 23.0763 13.3943 22.6648 13.3943 22.5434C13.3949 22.4226 13.4249 22.0122 13.8077 21.814C14.5993 21.4048 15.1723 20.632 15.3025 19.797C15.4177 19.061 15.1918 18.3657 14.6664 17.8397C14.3669 17.5389 14.2601 17.1662 14.3734 16.8166C14.4867 16.4682 14.792 16.23 15.2113 16.1629C15.9476 16.0448 16.5967 15.5646 16.9469 14.8781C17.2985 14.1903 17.3067 13.3815 16.9697 12.7147C16.7772 12.3338 16.7913 11.9442 17.0088 11.6457C17.2235 11.351 17.5883 11.221 18.0029 11.287C18.7393 11.4041 19.4301 11.1806 19.958 10.6571C20.5597 10.0605 20.85 9.14116 20.7158 8.25736C20.6507 7.82896 20.9664 7.56322 21.0647 7.49209C21.1629 7.42102 21.5129 7.20489 21.8981 7.39802C22.6947 7.79749 23.6571 7.80702 24.4091 7.42116C25.0718 7.08116 25.5014 6.48989 25.6181 5.75582C25.6959 5.26629 26.0479 4.94402 26.3623 4.84142C26.6285 4.75456 26.8669 4.81269 27.0706 5.01556C27.6925 5.63482 28.5184 5.91616 29.3408 5.78609C30.1643 5.65582 30.8675 5.13376 31.2699 4.35149C31.4671 3.96802 31.8786 3.93809 32.0003 3.93809C32.1214 3.93809 32.5329 3.96809 32.7289 4.35082C33.1285 5.13116 33.8291 5.65342 34.6501 5.78442C35.4737 5.91582 36.3041 5.63669 36.9281 5.01649C37.1326 4.81316 37.3729 4.75556 37.6416 4.84329C37.9549 4.94556 38.3049 5.26749 38.3812 5.75409C38.4962 6.48749 38.9236 7.07842 39.585 7.41882C40.3384 7.80656 41.3024 7.79922 42.1013 7.39829C42.4879 7.20422 42.8387 7.42162 42.9365 7.49302C43.0341 7.56422 43.3487 7.82962 43.2835 8.25636C43.1488 9.13756 43.4378 10.0558 44.0381 10.6525C44.5667 11.1779 45.2614 11.4064 45.9951 11.287C46.415 11.2196 46.7776 11.3534 46.9937 11.6509C47.2092 11.9478 47.2229 12.3352 47.0309 12.7137C46.6923 13.3788 46.6995 14.186 47.0491 14.8735C47.3993 15.562 48.0491 16.0441 48.7873 16.1629C49.2079 16.2303 49.5145 16.4712 49.6285 16.8237C49.7405 17.171 49.633 17.5405 49.3349 17.8374C48.8088 18.3608 48.5816 19.0538 48.6949 19.7888C48.8238 20.6267 49.3967 21.4028 50.1909 21.8136C50.5757 22.0128 50.605 22.4246 50.605 22.5456C50.605 22.6667 50.5751 23.0769 50.1916 23.2748C49.3999 23.6837 48.827 24.4568 48.6968 25.2924C48.5815 26.0291 48.8081 26.7244 49.3335 27.2504C49.6838 27.6007 49.7372 28.076 49.6349 28.391C49.5483 28.6573 49.3615 28.8152 49.0789 28.8601C48.2137 28.9978 47.5001 29.5014 47.1219 30.2416C46.7417 30.9851 46.7509 31.8621 47.1473 32.6476C47.3407 33.0307 47.1252 33.3787 47.0549 33.4764C46.9833 33.5753 46.7137 33.8911 46.2853 33.8286C45.3609 33.6906 44.4897 33.979 43.8967 34.6202C43.5984 34.9436 43.3985 35.33 43.3007 35.748L39.4409 34.6411L38.2955 30.729C39.9945 29.2126 41.2053 27.2375 41.7684 24.9936C43.0477 24.2514 43.8042 22.6193 43.8146 20.5256C43.8167 20.1296 43.8262 19.2352 43.833 18.628C44.0966 18.537 44.3051 18.5028 44.4533 18.5269L44.7059 16.9468C44.0236 16.8384 43.3556 17.0803 42.9123 17.271C42.5653 17.4218 42.1538 17.4 41.8139 17.2154C41.6538 17.1288 41.3758 16.9292 41.3133 16.5672C41.1277 15.4966 40.4201 14.6577 39.4201 14.3234C38.3908 13.978 37.2365 14.247 36.4083 15.0249C36.1486 15.269 35.8419 15.2967 35.631 15.2778C35.2638 15.2446 34.9051 15.0474 34.6948 14.7635C33.7065 13.4272 32.7033 13.1408 32.0353 13.1356C31.3445 13.105 30.3406 13.4064 29.3113 14.7537C29.0887 15.045 28.7195 15.2452 28.3471 15.2758C28.1421 15.2954 27.8439 15.2632 27.5913 15.0252C26.7631 14.2468 25.6082 13.9776 24.5776 14.324C23.5776 14.6586 22.8699 15.4978 22.6857 16.5684C22.6238 16.9294 22.3458 17.129 22.1857 17.2156C21.8445 17.4004 21.4337 17.4213 21.0873 17.2712C20.644 17.0802 19.9753 16.8366 19.2931 16.9467L19.5457 18.5268C19.6947 18.5032 19.9003 18.537 20.1589 18.6256V20.5212C20.1589 21.7898 20.4407 22.8854 20.9469 23.721C20.7402 24.4193 20.2947 25.9273 20.1238 26.53C19.9369 27.1889 20.0675 27.8818 20.4819 28.4301C20.9001 28.9834 21.5379 29.3006 22.2305 29.3006H24.3337C24.7393 29.8132 25.1882 30.2914 25.6806 30.7306L24.5703 34.6424L20.7045 35.7508C20.6138 35.36 20.4289 34.9935 20.1507 34.6781ZM30.6663 30.6338H33.333C33.7751 30.6338 34.1331 30.2754 34.1331 29.8337V27.167C34.1331 26.7253 33.7751 26.3669 33.333 26.3669H30.6663C30.2243 26.3669 29.8662 26.7253 29.8662 27.167V27.7002H25.1378C24.4495 26.6752 23.9503 25.5206 23.6813 24.2761C23.6253 24.0183 23.4463 23.8044 23.2021 23.7045C22.3121 23.3406 21.7593 22.1208 21.7593 20.5212V18.9577C22.1707 18.9312 22.5781 18.8224 22.9475 18.6224C23.6545 18.2396 24.1337 17.5896 24.2626 16.8396C24.3466 16.352 24.6467 15.988 25.0855 15.8412C25.5667 15.681 26.0927 15.8119 26.4951 16.1911C27.0263 16.6908 27.7295 16.9314 28.4788 16.8704C29.3004 16.8027 30.0869 16.3744 30.5829 15.7246C30.9299 15.2704 31.2319 14.7353 32.0231 14.7353C32.7534 14.7353 33.0797 15.2701 33.4085 15.7145C33.8889 16.3646 34.6663 16.7968 35.4873 16.8711C36.2483 16.9411 36.9638 16.6982 37.5035 16.1914C37.9078 15.8119 38.4345 15.6804 38.9131 15.8408C39.3519 15.9873 39.652 16.3519 39.7367 16.8402C39.8662 17.5902 40.3461 18.2399 41.0524 18.6221C41.4181 18.8202 41.8217 18.9277 42.2291 18.9556C42.223 19.5219 42.2163 20.1894 42.2145 20.5173C42.2067 22.1472 41.6677 23.3386 40.7725 23.7045C40.5283 23.8044 40.3493 24.0183 40.2933 24.2761C39.736 26.8546 38.2113 29.0596 35.999 30.4858L34.4437 31.4887C32.9508 32.4516 31.0218 32.4506 29.5303 31.4887L27.9749 30.4858C27.4325 30.136 26.9327 29.7381 26.477 29.3006H29.8663V29.8338C29.8663 30.2755 30.2243 30.6338 30.6663 30.6338ZM21.6631 26.9665C21.7777 26.5626 22.0163 25.7498 22.2229 25.0496C22.4627 25.9854 22.8208 26.8711 23.2731 27.7002H22.2308C22.0439 27.7002 21.8721 27.6146 21.7588 27.4649C21.6943 27.38 21.5967 27.2019 21.6631 26.9665ZM25.9879 35.5075L27.0447 31.785C27.0667 31.7993 28.6631 32.833 28.6631 32.833C29.6728 33.4847 30.8297 33.8102 31.9873 33.8102C33.1442 33.8102 34.3011 33.4847 35.3102 32.8334C35.3102 32.8334 36.9125 31.796 36.9367 31.7801L38.0296 35.5134C38.1064 35.777 38.3128 35.9821 38.5765 36.0576L40.9764 36.7458C38.6716 39.0262 35.5466 40.2731 32.0381 40.2731C28.4602 40.2731 25.3071 39.0281 23.0195 36.7514L25.4391 36.0576C25.7047 35.9814 25.9125 35.7731 25.9879 35.5075ZM49.8662 50.1292C45.0986 54.928 38.7666 57.5667 31.9997 57.5667C25.2327 57.5667 18.9007 54.928 14.1331 50.1292V42.7152C14.1331 40.7041 15.4834 38.9118 17.417 38.3578L21.2887 37.2476C23.9131 40.233 27.7059 41.8734 32.0381 41.8734C36.294 41.8734 40.0609 40.231 42.7111 37.2432L46.5823 38.3532C48.5159 38.9072 49.8662 40.6995 49.8662 42.7106V50.1292Z" fill="#461E96"/>
</svg>
