<svg width="52" height="47" viewBox="0 0 52 47" fill="none" xmlns="http://www.w3.org/2000/svg">
<rect x="16.5108" y="32.9661" width="4.30642" height="13.4554" rx="0.5" stroke="#3B3B3B"/>
<rect x="23.647" y="0.578613" width="4.67239" height="4.39791" rx="0.5" stroke="#3B3B3B"/>
<rect x="23.647" y="8.08081" width="4.67239" height="4.39791" rx="0.5" stroke="#3B3B3B"/>
<rect x="23.647" y="15.583" width="4.67239" height="4.39791" rx="0.5" stroke="#3B3B3B"/>
<rect x="30.9695" y="0.856167" width="15.0044" height="0.45745" rx="0.228725" fill="#3B3B3B" stroke="#3B3B3B" stroke-width="0.45745"/>
<rect x="30.9695" y="4.24142" width="7.68517" height="0.45745" rx="0.228725" fill="#3B3B3B" stroke="#3B3B3B" stroke-width="0.45745"/>
<rect x="30.9695" y="8.54147" width="15.0044" height="0.45745" rx="0.228725" fill="#3B3B3B" stroke="#3B3B3B" stroke-width="0.45745"/>
<rect x="30.9695" y="15.8606" width="15.0044" height="0.45745" rx="0.228725" fill="#3B3B3B" stroke="#3B3B3B" stroke-width="0.45745"/>
<rect x="30.9695" y="11.9265" width="7.68517" height="0.45745" rx="0.228725" fill="#3B3B3B" stroke="#3B3B3B" stroke-width="0.45745"/>
<rect x="30.9695" y="19.2458" width="7.68517" height="0.45745" rx="0.228725" fill="#3B3B3B" stroke="#3B3B3B" stroke-width="0.45745"/>
<rect x="0.5" y="29.3066" width="4.30642" height="17.115" rx="0.5" stroke="#3B3B3B"/>
<rect x="23.647" y="29.3066" width="4.30642" height="17.115" rx="0.5" stroke="#3B3B3B"/>
<rect x="9.00853" y="25.7383" width="4.30642" height="20.6831" rx="0.5" stroke="#3B3B3B"/>
<path d="M18.8044 9.73082C18.8044 14.7854 14.7068 18.883 9.6522 18.883C4.59758 18.883 0.5 14.7854 0.5 9.73082C0.5 4.67619 4.59758 0.578613 9.6522 0.578613C14.7068 0.578613 18.8044 4.67619 18.8044 9.73082Z" stroke="#3B3B3B"/>
<line x1="9.74057" y1="0.0786133" x2="9.74057" y2="19.383" stroke="#3B3B3B"/>
<line x1="9.24057" y1="9.18506" x2="19.3045" y2="9.18506" stroke="#3B3B3B"/>
<path d="M29.6099 30.4128L27.2339 22.0128H28.6859L30.4499 28.5768L32.3579 22.0128H33.6299L35.5259 28.5768L37.2899 22.0128H38.7419L36.3659 30.4128H34.7699L32.9939 24.2808L31.2059 30.4128H29.6099Z" fill="#3B3B3B"/>
<path d="M22.662 31.2536C23.8596 33.97 26.1275 36.1166 28.9667 37.2211C31.806 38.3255 34.9842 38.2975 37.802 37.143C40.6198 35.9886 42.8465 33.8023 43.9922 31.0651C45.1379 28.328 45.1088 25.2642 43.9112 22.5478C42.7137 19.8313 40.4458 17.6848 37.6065 16.5803C34.7672 15.4758 31.5891 15.5039 28.7713 16.6583C25.9535 17.8128 23.7268 19.9991 22.5811 22.7362C21.4354 25.4733 21.4645 28.5371 22.662 31.2536Z" fill="white"/>
<path d="M41.449 34.7692L50.4024 43.4017L41.449 34.7692Z" fill="white"/>
<path d="M41.449 34.7692L50.4024 43.4017M22.662 31.2536C23.8596 33.97 26.1275 36.1166 28.9667 37.2211C31.806 38.3255 34.9842 38.2975 37.802 37.143C40.6198 35.9886 42.8465 33.8023 43.9922 31.0651C45.1379 28.328 45.1088 25.2642 43.9112 22.5478C42.7137 19.8313 40.4458 17.6848 37.6065 16.5803C34.7672 15.4758 31.5891 15.5039 28.7713 16.6583C25.9535 17.8128 23.7268 19.9991 22.5811 22.7362C21.4354 25.4733 21.4645 28.5371 22.662 31.2536Z" stroke="#3B3B3B" stroke-width="2" stroke-linecap="round" stroke-linejoin="round"/>
</svg>
