<svg width="15" height="17" viewBox="0 0 15 17" fill="none" xmlns="http://www.w3.org/2000/svg">
<path d="M7.80089 4.09382H4.99617C4.3749 4.09382 3.82727 3.77853 3.50456 3.29923L1.79959 3.29936C1.4959 3.29936 1.24492 3.52503 1.2052 3.81782L1.19972 3.89922V14.7004C1.19972 15.0041 1.4254 15.2551 1.71819 15.2948L1.88098 15.3058C2.17378 15.3455 2.39945 15.5965 2.39945 15.9001C2.39945 16.2314 2.13088 16.5 1.79959 16.5C0.847114 16.5 0.0674686 15.76 0.00415173 14.8236L0 14.7004V3.89922C0 2.94675 0.739959 2.1671 1.67638 2.10378L1.79959 2.09963L3.21002 2.0992C3.30845 1.19982 4.07059 0.5 4.99617 0.5H7.80089C8.72648 0.5 9.48861 1.19982 9.58704 2.0992L10.9975 2.09963C11.9499 2.09963 12.7296 2.83959 12.7929 3.77601L12.7971 3.89922V8.30161C12.7971 8.6329 12.5285 8.90147 12.1972 8.90147C11.8935 8.90147 11.6425 8.6758 11.6028 8.38301L11.5973 8.30161V3.89922C11.5973 3.59553 11.3717 3.34455 11.0789 3.30483L10.9975 3.29936L9.2925 3.29923C8.96979 3.77853 8.42216 4.09382 7.80089 4.09382ZM10.3976 10.0958H11.1974C12.9643 10.0958 14.3967 11.5282 14.3967 13.2951C14.3967 15.0084 13.0498 16.4072 11.3605 16.4904L11.2011 16.4943L10.4013 16.498C9.95956 16.5 9.59983 16.1436 9.59779 15.7019C9.59592 15.2917 9.90313 14.9522 10.3007 14.9042L10.3939 14.8984L11.1974 14.8947C12.0809 14.8947 12.7971 14.1785 12.7971 13.2951C12.7971 12.4518 12.1445 11.7609 11.3168 11.6998L11.1974 11.6955H10.3976C9.95589 11.6955 9.59779 11.3374 9.59779 10.8956C9.59779 10.4855 9.90656 10.1474 10.3043 10.1012L10.3976 10.0958ZM6.79844 10.0995H7.59826C8.03998 10.0995 8.39807 10.4576 8.39807 10.8993C8.39807 11.3095 8.08931 11.6475 7.69153 11.6937L7.59826 11.6991H6.79844C5.91499 11.6991 5.19881 12.4153 5.19881 13.2988C5.19881 14.1421 5.85136 14.8329 6.67906 14.894L6.79844 14.8984H7.59826C8.03998 14.8984 8.39807 15.2565 8.39807 15.6982C8.39807 16.1084 8.08931 16.4464 7.69153 16.4926L7.59826 16.498H6.79844C5.03153 16.498 3.59917 15.0657 3.59917 13.2988C3.59917 11.5854 4.94604 10.1866 6.63876 10.1034L6.79844 10.0995ZM6.79729 12.4971H11.1974C11.6392 12.4971 11.9972 12.8552 11.9972 13.2969C11.9972 13.7071 11.6885 14.0452 11.2907 14.0914L11.1974 14.0967H6.79729C6.35556 14.0967 5.99747 13.7386 5.99747 13.2969C5.99747 12.8867 6.30623 12.5487 6.70401 12.5025L6.79729 12.4971ZM7.80089 1.69972H4.99617C4.66636 1.69972 4.39899 1.96709 4.39899 2.29691C4.39899 2.62672 4.66636 2.89409 4.99617 2.89409H7.80089C8.1307 2.89409 8.39807 2.62672 8.39807 2.29691C8.39807 1.96709 8.1307 1.69972 7.80089 1.69972Z" fill="#461E96" stroke="#461E96" stroke-width="0.00666667"/>
</svg>
