<svg width="18" height="19" viewBox="0 0 18 19" fill="none" xmlns="http://www.w3.org/2000/svg">
<g clip-path="url(#clip0_360_3311)">
<path d="M15.1875 6.6875V4.4375C15.1875 4.13913 15.069 3.85298 14.858 3.642C14.647 3.43103 14.3609 3.3125 14.0625 3.3125H11.0625" stroke="#3B3B3B" stroke-width="1.5" stroke-linecap="round" stroke-linejoin="round"/>
<path d="M4.6875 3.3125H1.6875C1.38913 3.3125 1.10298 3.43103 0.892005 3.642C0.681026 3.85298 0.5625 4.13913 0.5625 4.4375V16.8125C0.5625 17.1109 0.681026 17.397 0.892005 17.608C1.10298 17.819 1.38913 17.9375 1.6875 17.9375H6.1875" stroke="#3B3B3B" stroke-width="1.5" stroke-linecap="round" stroke-linejoin="round"/>
<path d="M10.8159 4.05275C10.7785 4.16477 10.7068 4.26219 10.6109 4.33124C10.5151 4.40028 10.4 4.43746 10.2819 4.4375H5.46839C5.35028 4.43746 5.23517 4.40028 5.13934 4.33124C5.04352 4.26219 4.97182 4.16477 4.93439 4.05275L4.18439 1.80275C4.15604 1.71817 4.14825 1.62806 4.16165 1.53987C4.17505 1.45168 4.20926 1.36795 4.26144 1.2956C4.31363 1.22326 4.38229 1.16438 4.46175 1.12385C4.54122 1.08331 4.62919 1.06228 4.71839 1.0625H11.0319C11.1211 1.06228 11.2091 1.08331 11.2885 1.12385C11.368 1.16438 11.4366 1.22326 11.4888 1.2956C11.541 1.36795 11.5752 1.45168 11.5886 1.53987C11.602 1.62806 11.5942 1.71817 11.5659 1.80275L10.8159 4.05275Z" stroke="#3B3B3B" stroke-width="1.5" stroke-linecap="round" stroke-linejoin="round"/>
<path d="M8.4375 8.9375H17.4375V17.9375H8.4375V8.9375Z" stroke="#3B3B3B" stroke-width="1.5" stroke-linecap="round" stroke-linejoin="round"/>
<path d="M10.6875 11.1875H15.1875" stroke="#3B3B3B" stroke-width="1.5" stroke-linecap="round" stroke-linejoin="round"/>
<path d="M10.6875 13.4375H15.1875" stroke="#3B3B3B" stroke-width="1.5" stroke-linecap="round" stroke-linejoin="round"/>
<path d="M10.6875 15.6875H12.375" stroke="#3B3B3B" stroke-width="1.5" stroke-linecap="round" stroke-linejoin="round"/>
</g>
<defs>
<clipPath id="clip0_360_3311">
<rect width="18" height="18" fill="white" transform="translate(0 0.5)"/>
</clipPath>
</defs>
</svg>
