<svg width="24" height="24" viewBox="0 0 24 24" fill="none" xmlns="http://www.w3.org/2000/svg">
<path d="M10.5844 21.9464L10.4672 21.8386L2.25469 14.2121C0.815625 12.8761 0 11.0011 0 9.03707V8.88238C0 5.58238 2.34375 2.75113 5.5875 2.13238C7.43437 1.77613 9.32344 2.2027 10.8281 3.26207C11.25 3.56207 11.6438 3.90895 12 4.30738C12.1969 4.08238 12.4078 3.87613 12.6328 3.68395C12.8062 3.53395 12.9844 3.39332 13.1719 3.26207C14.6766 2.2027 16.5656 1.77613 18.4125 2.1277C21.6562 2.74645 24 5.58238 24 8.88238V9.03707C24 11.0011 23.1844 12.8761 21.7453 14.2121L13.5328 21.8386L13.4156 21.9464C13.0313 22.3027 12.525 22.5043 12 22.5043C11.475 22.5043 10.9688 22.3074 10.5844 21.9464ZM11.2078 6.79645C11.1891 6.78238 11.175 6.76363 11.1609 6.74488L10.3266 5.80738L10.3219 5.8027C9.23906 4.58863 7.60312 4.03551 6.00937 4.3402C3.825 4.75738 2.25 6.66051 2.25 8.88238V9.03707C2.25 10.373 2.80781 11.6527 3.7875 12.5621L12 20.1886L20.2125 12.5621C21.1922 11.6527 21.75 10.373 21.75 9.03707V8.88238C21.75 6.66519 20.175 4.75738 17.9953 4.3402C16.4016 4.03551 14.7609 4.59332 13.6828 5.8027C13.6828 5.8027 13.6828 5.8027 13.6781 5.80738C13.6734 5.81207 13.6781 5.80738 13.6734 5.81207L12.8391 6.74957C12.825 6.76832 12.8062 6.78238 12.7922 6.80113C12.5812 7.01207 12.2953 7.12926 12 7.12926C11.7047 7.12926 11.4188 7.01207 11.2078 6.80113V6.79645Z" fill="#461E96"/>
</svg>
