<svg width="24" height="24" viewBox="0 0 24 24" fill="none" xmlns="http://www.w3.org/2000/svg">
<g clip-path="url(#clip0_144_1407)">
<path d="M2.23639 15.1333L10.7262 23.0593C11.0786 23.3882 11.5437 23.5714 12.0276 23.5714C12.5116 23.5714 12.9767 23.3882 13.3291 23.0593L21.8189 15.1333C23.2471 13.8037 24.0553 11.9385 24.0553 9.98867V9.71617C24.0553 6.43206 21.6826 3.63188 18.4455 3.09157C16.3031 2.7345 14.1231 3.43455 12.5914 4.96619L12.0276 5.52999L11.4638 4.96619C9.93219 3.43455 7.75218 2.7345 5.60976 3.09157C2.37264 3.63188 0 6.43206 0 9.71617V9.98867C0 11.9385 0.808106 13.8037 2.23639 15.1333Z" fill="#461E96"/>
</g>
<defs>
<clipPath id="clip0_144_1407">
<rect width="24" height="24" fill="white"/>
</clipPath>
</defs>
</svg>
