<svg width="24" height="24" viewBox="0 0 24 24" fill="none" xmlns="http://www.w3.org/2000/svg">
<path d="M13.6875 15.375H13.125C12.8266 15.375 12.5405 15.2565 12.3295 15.0455C12.1185 14.8345 12 14.5484 12 14.25V11.4375C12 11.2883 11.9407 11.1452 11.8352 11.0398C11.7298 10.9343 11.5867 10.875 11.4375 10.875H10.875M11.7187 8.0625C11.663 8.0625 11.6085 8.07908 11.5622 8.11012C11.5159 8.14115 11.4798 8.18526 11.4586 8.23682C11.4374 8.28839 11.432 8.34509 11.4431 8.39973C11.4542 8.45437 11.4813 8.50448 11.5209 8.54369C11.5606 8.5829 11.611 8.60945 11.6657 8.61996C11.7205 8.63047 11.7771 8.62447 11.8285 8.60272C11.8798 8.58097 11.9235 8.54446 11.9541 8.49781C11.9846 8.45117 12.0006 8.3965 12 8.34075C12.0001 8.30379 11.9929 8.26717 11.9788 8.233C11.9647 8.19884 11.944 8.16779 11.9178 8.14166C11.8917 8.11552 11.8606 8.09481 11.8265 8.08071C11.7923 8.06661 11.7557 8.0594 11.7187 8.0595M3.5625 12C3.5625 14.2378 4.45145 16.3839 6.03379 17.9662C7.61612 19.5486 9.76224 20.4375 12 20.4375C14.2378 20.4375 16.3839 19.5486 17.9662 17.9662C19.5486 16.3839 20.4375 14.2378 20.4375 12C20.4375 9.76224 19.5486 7.61612 17.9662 6.03379C16.3839 4.45145 14.2378 3.5625 12 3.5625C9.76224 3.5625 7.61612 4.45145 6.03379 6.03379C4.45145 7.61612 3.5625 9.76224 3.5625 12Z" stroke="#A3A3A3" stroke-width="1.8" stroke-linecap="round" stroke-linejoin="round"/>
</svg>
