<svg width="77" height="77" viewBox="0 0 77 77" fill="none" xmlns="http://www.w3.org/2000/svg">
<path d="M67.2645 36.2428L62.3353 34.8289L61.6488 32.4093C62.8956 31.1635 63.6865 29.9139 64.0711 28.5647C65.575 27.6314 65.575 25.7457 65.575 25.0881C65.575 24.4744 65.3601 23.9022 64.9994 23.447C65.2962 22.4556 65.8536 20.3953 65.8506 18.9166C65.8483 17.8342 65.4559 16.9146 64.7149 16.2574C63.7123 15.3672 62.1042 14.9967 60.1961 15.2082C60.0927 15.1863 59.8381 15.0296 59.6494 14.9141C58.6182 14.2812 56.9512 13.2707 53.4438 14.5396C53.3969 14.4733 53.3595 14.3977 53.311 14.3328C49.7189 9.52545 43.9743 6.41818 38.6757 6.41698H38.6718C34.7757 6.41698 31.4233 8.00936 28.9203 11.0147C28.909 10.9263 28.8991 10.8393 28.8918 10.7673C28.8768 10.624 28.862 10.4838 28.8456 10.3781C28.7629 9.71972 28.4054 9.12209 27.8649 8.73829C27.335 8.36195 26.67 8.22528 25.9971 8.36781C25.0599 8.56953 24.8535 8.53464 24.7294 8.32121L24.2676 7.55674C23.9316 7.00025 23.3746 6.60386 22.739 6.46879C22.1029 6.33172 21.4333 6.46879 20.901 6.84008L20.1463 7.36608C20.0049 7.47068 19.8068 7.51062 18.9377 6.84048C18.4051 6.4696 17.7358 6.33212 17.099 6.46879C16.4637 6.60394 15.9064 7.00025 15.5704 7.55634L15.0996 8.33572C14.9829 8.53785 14.771 8.5891 13.7775 8.35449C13.1391 8.23306 12.4718 8.38072 11.9461 8.76299C11.4205 9.14486 11.0732 9.73351 10.9925 10.3777L10.8793 11.2813C10.8543 11.5124 10.6807 11.6463 9.6789 11.8367C9.04597 11.9847 8.49695 12.392 8.17226 12.9548C7.84758 13.5172 7.7693 14.1962 7.96982 14.855C8.2945 15.7871 8.26707 15.9959 8.06222 16.1454L7.35101 16.6844C6.83327 17.0768 6.49719 17.6721 6.4295 18.3179C6.36172 18.9641 6.56617 19.6165 7.02047 20.1405C7.68548 20.842 7.75085 21.066 7.62749 21.2779L7.19669 22.06C6.883 22.6287 6.81835 23.3093 7.01887 23.9269C7.21979 24.5449 7.67217 25.0576 8.29482 25.3494C9.20575 25.734 9.34282 25.8937 9.3178 26.1421L9.24144 27.0338C9.18698 27.678 9.40322 28.3239 9.83474 28.8056C10.2683 29.2893 10.8898 29.5759 11.5408 29.5921C12.3733 29.6122 12.925 29.6237 13.2985 29.6306C13.7299 30.7591 14.4031 31.7813 15.2876 32.6319L14.6645 34.8291L9.73528 36.2429C7.78141 36.8029 6.4165 38.6139 6.4165 40.6465V45.8992C6.4165 46.1491 6.51404 46.3895 6.68793 46.569C9.08159 49.0392 11.9044 50.711 15.0788 51.568V60.1032C15.0788 60.3531 15.1764 60.5935 15.3503 60.773C21.4822 67.0996 29.7036 70.5836 38.4998 70.5836C47.2961 70.5836 55.5175 67.0996 61.649 60.773C61.8237 60.5936 61.9208 60.3532 61.9208 60.1032V51.5681C65.0944 50.7111 67.9173 49.0393 70.3113 46.569C70.486 46.3896 70.5832 46.1491 70.5832 45.8992V40.6465C70.5832 38.6135 69.2181 36.8024 67.2645 36.2428ZM58.6422 16.5546C59.1239 16.8503 59.6205 17.155 60.3497 17.1283C61.7001 16.9685 62.8562 17.1812 63.4374 17.6974C63.7648 17.988 63.9246 18.3878 63.9254 18.9205C63.9279 19.9778 63.5521 21.5008 63.2769 22.474C63.16 22.4639 62.9679 22.4525 62.6338 22.4417L62.485 21.597C62.3033 20.565 61.4104 19.7958 60.3631 19.768L58.1769 19.71L58.1252 21.6345L60.3122 21.6925C60.4492 21.696 60.566 21.7967 60.5895 21.931L60.8753 23.5524C60.9552 24.0063 61.3453 24.3396 61.8066 24.3475C62.3362 24.3569 62.9925 24.3768 63.0818 24.3855C63.4108 24.4513 63.6496 24.747 63.6496 25.0881C63.6496 26.7029 63.1288 26.9159 62.8789 27.0181C62.5852 27.1383 62.3698 27.3956 62.3024 27.7058C61.9906 29.1478 61.0523 30.4837 59.3486 31.9093C58.5482 32.5793 57.1179 32.9173 55.8716 32.7297C55.2729 32.6401 54.5014 32.4006 53.8332 31.8052C54.4362 30.2073 54.9194 28.5121 55.2309 26.8136C55.9873 22.69 55.6782 19.0339 54.4041 16.2374C56.8044 15.435 57.813 16.0462 58.6422 16.5546ZM29.9708 12.7729C32.1393 9.87404 35.1483 8.3419 38.6719 8.3419H38.6754C43.3877 8.3431 48.5276 11.1469 51.7696 15.485C54.7675 19.4969 53.9063 26.6669 51.6602 32.0428L51.5722 32.0999C51.5842 32.1184 51.5986 32.1346 51.6108 32.1529C50.8805 33.8777 50.0109 35.4167 49.079 36.5952L46.1401 36.5914L46.084 36.3997C48.2497 34.4765 49.7674 31.9244 50.4091 29.0158C51.0005 26.3322 50.4451 22.8043 50.4208 22.6556C50.3456 22.1875 49.9414 21.8511 49.4715 21.8511C49.448 21.8507 49.4221 21.8528 49.3955 21.8543C37.5471 21.5042 34.4845 20.0053 30.1455 15.0621L28.6988 16.3318C33.2991 21.5731 36.7247 23.3405 48.6217 23.7553C48.7423 24.8789 48.8872 26.9761 48.5293 28.6015C47.8423 31.7166 46.0071 34.3711 43.3619 36.0763L41.4906 37.283C39.6961 38.441 37.3752 38.4414 35.5788 37.2826L33.708 36.0763C31.1 34.3946 29.2644 31.737 28.5391 28.5925C27.8154 25.4547 28.9218 20.0457 28.9331 19.9913L27.0485 19.5996C26.9988 19.8378 25.8442 25.4746 26.6631 29.0248C27.328 31.9066 28.8151 34.4277 30.9086 36.3272L30.8325 36.5957H26.7994C22.9789 30.4775 22.0695 20.1116 25.0084 15.328C26.0224 13.6785 27.3947 12.9449 29.0839 13.1521C29.4324 13.1967 29.7647 13.0491 29.9708 12.7729ZM38.5 51.5535C37.4085 51.5535 36.4411 51.0123 35.9128 50.1052C34.8268 48.2421 32.0192 42.8794 31.3919 41.6785L32.5457 37.6086C32.5867 37.6357 34.5358 38.9004 34.5358 38.9004C35.7506 39.6844 37.1426 40.0761 38.5348 40.0761C39.9271 40.0753 41.319 39.6836 42.5338 38.9004C42.5338 38.9004 44.4334 37.6728 44.4485 37.663L45.6182 41.6589C45.0148 42.8149 42.18 48.2298 41.0871 50.1052C40.5592 51.0123 39.5919 51.5535 38.5 51.5535ZM14.8182 28.0375C14.5448 26.8214 14.8236 23.4666 15.2235 21.9435C15.2466 21.8554 15.2721 21.79 15.294 21.745C15.4045 21.7896 15.6227 21.9083 15.9649 22.2211C17.7786 23.8782 19.7893 22.9774 20.5988 22.2686L19.3377 20.814C19.0866 21.0259 18.1929 21.6485 17.2636 20.8003C16.9181 20.485 15.8646 19.5251 14.7171 19.8634C14.0619 20.0565 13.5806 20.6216 13.3617 21.4543C12.9946 22.8525 12.667 25.8479 12.8292 27.6957C12.5051 27.6889 12.1022 27.6798 11.5883 27.6673C11.4206 27.6634 11.316 27.5737 11.2683 27.5204C11.2221 27.4687 11.1461 27.3575 11.1598 27.1978L11.2342 26.322C11.412 24.5757 9.87132 23.9252 9.07862 23.5915C8.93015 23.5218 8.87184 23.3992 8.84986 23.3323C8.82829 23.2653 8.80366 23.1322 8.88275 22.988L9.30144 22.2279C10.1987 20.6954 8.95093 19.3783 8.4473 18.8488C8.34038 18.725 8.33685 18.5892 8.34391 18.5191C8.35137 18.4494 8.38305 18.3173 8.51267 18.2191L9.21217 17.6892C10.6339 16.6514 10.0625 15.0104 9.80001 14.2596C9.75261 14.1029 9.80434 13.9776 9.83955 13.9169C9.87477 13.8558 9.95746 13.7482 10.0765 13.7195C10.8969 13.5644 12.6042 13.2417 12.791 11.504L12.9026 10.6169C12.9226 10.4548 13.0209 10.3615 13.0777 10.3205C13.1349 10.2793 13.2524 10.2155 13.3742 10.2363C14.1876 10.4293 15.8784 10.8292 16.7556 9.31667L17.2178 8.5518C17.3028 8.4116 17.4304 8.3662 17.4994 8.35168C17.5683 8.33797 17.7038 8.32666 17.7994 8.39203C18.4123 8.8655 19.848 9.9735 21.2673 8.93095L22.0009 8.41986C22.1353 8.32706 22.2703 8.33725 22.3389 8.35168C22.4075 8.36612 22.5351 8.4116 22.6201 8.5518L23.0717 9.29862C23.9243 10.7802 25.5351 10.4356 26.4437 10.2409C26.5796 10.2124 26.685 10.2609 26.7504 10.3075C26.8522 10.3799 26.9199 10.4928 26.9392 10.6439C26.9548 10.7461 26.9654 10.8542 26.9768 10.9646C26.9904 11.0965 27.0057 11.2409 27.0282 11.391C25.567 11.7831 24.3239 12.7651 23.3681 14.3202C20.8633 18.397 20.7697 25.7469 22.6862 32.0107C21.8363 32.5945 19.7076 33.4309 17.5628 32.0024C16.1411 31.0562 15.1672 29.6506 14.8182 28.0375ZM8.34199 40.6463C8.34199 39.4675 9.13308 38.4179 10.2657 38.0928L15.7099 36.5317C16.0303 36.44 16.2801 36.1894 16.3706 35.869L16.936 33.8743C18.0658 34.5161 19.1547 34.7251 20.0892 34.7251C20.6336 34.7251 21.1255 34.655 21.5426 34.5594C22.2157 34.4056 22.8169 34.1565 23.3211 33.8728C23.9129 35.4034 24.633 36.8347 25.4758 38.0936C25.6545 38.3607 25.9545 38.5208 26.2756 38.5208H30.2863L29.5615 41.0771L20.4245 43.6972C17.6629 44.4889 15.6329 46.8314 15.1766 49.6055C12.6205 48.8437 10.3266 47.4684 8.3419 45.5034L8.34199 40.6463ZM17.0043 50.7898C17.0043 48.3702 18.6289 46.2139 20.9548 45.5473L29.9009 42.9823C30.8059 44.7116 33.2272 49.3202 34.2499 51.0748C34.9645 52.3016 36.1561 53.1155 37.5373 53.3779V68.6344C29.76 68.3939 22.5133 65.2547 17.0043 59.7096V50.7898ZM59.9957 59.7097C54.4867 65.2548 47.24 68.394 39.4627 68.6345V53.3778C40.8438 53.1152 42.0351 52.3013 42.7509 51.0741C43.7736 49.3183 46.1985 44.7026 47.1015 42.9775L56.0448 45.5418C58.3711 46.2084 59.9957 48.3647 59.9957 50.7843V59.7097ZM68.658 45.5034C66.6733 47.4682 64.3795 48.8435 61.824 49.6052C61.3694 46.8289 59.3392 44.4839 56.5758 43.6916L47.4529 41.0755L46.7039 38.5173L49.5326 38.5208H49.5342C49.8162 38.5208 50.084 38.397 50.2666 38.1824C51.2999 36.9698 52.2504 35.3929 53.0624 33.6336C53.7931 34.1452 54.6463 34.4923 55.5866 34.6333C55.9172 34.683 56.2532 34.7069 56.5884 34.7069C57.8353 34.7069 59.074 34.3701 60.0353 33.7738L60.6294 35.8689C60.7203 36.1893 60.9701 36.4399 61.2897 36.5316L66.7335 38.0931C67.8669 38.4178 68.658 39.4674 68.658 40.6462V45.5034Z" fill="#999999"/>
</svg>
