<svg width="26" height="20" viewBox="0 0 26 20" fill="none" xmlns="http://www.w3.org/2000/svg">
<path d="M7.26087 13.5217H4.91304C3.87524 13.5217 2.87994 13.1095 2.1461 12.3756C1.41227 11.6418 1 10.6465 1 9.6087C1 8.57089 1.41227 7.57559 2.1461 6.84176C2.87994 6.10792 3.87524 5.69565 4.91304 5.69565H7.26087M7.26087 13.5217V5.69565M7.26087 13.5217C11.8534 13.5221 16.3431 14.8815 20.1645 17.4285L21.3478 18.2174V1L20.1645 1.78887C16.3431 4.33594 11.8534 5.69526 7.26087 5.69565M7.26087 13.5217C7.2602 14.5464 7.468 15.5604 7.87163 16.5022C8.27525 17.444 8.86626 18.2938 9.6087 19M24.4783 8.04348V11.1739" stroke="white" stroke-width="1.5" stroke-linecap="round" stroke-linejoin="round"/>
</svg>
