<svg width="19" height="18" viewBox="0 0 19 18" fill="none" xmlns="http://www.w3.org/2000/svg">
<path d="M7.13071 6.68564C7.32215 6.17007 7.70002 5.73533 8.19738 5.4584C8.69475 5.18148 9.27952 5.08025 9.84812 5.17265C10.4167 5.26505 10.9325 5.54511 11.304 5.96322C11.6755 6.38134 11.8789 6.91053 11.878 7.45707C11.878 8.99993 9.43514 9.77136 9.43514 9.77136M9.50028 12.8571H9.50842M17.6431 8.99993C17.6431 13.2604 13.9975 16.7142 9.50028 16.7142C5.0031 16.7142 1.35742 13.2604 1.35742 8.99993C1.35742 4.73945 5.0031 1.28564 9.50028 1.28564C13.9975 1.28564 17.6431 4.73945 17.6431 8.99993Z" stroke="#A3A3A3" stroke-linecap="round" stroke-linejoin="round"/>
</svg>
