<svg width="24" height="24" viewBox="0 0 24 24" fill="none" xmlns="http://www.w3.org/2000/svg">
<path d="M8.25 8.99986C8.24992 9.41407 8.58564 9.74992 8.99986 9.75C9.41407 9.75008 9.74992 9.41436 9.75 9.00014L8.25 8.99986ZM13 11.829L13.25 12.5361L13 11.829ZM12 13.244H12.75V13.2436L12 13.244ZM11.25 14.25C11.25 14.6642 11.5858 15 12 15C12.4142 15 12.75 14.6642 12.75 14.25H11.25ZM12 18C12.4142 18 12.75 17.6642 12.75 17.25C12.75 16.8357 12.4142 16.5 11.9999 16.5L12 18ZM12.375 17.621L11.6249 17.619L11.625 17.629L12.375 17.621ZM11.998 16.496C11.5838 16.4971 11.2489 16.8338 11.25 17.248C11.2511 17.6622 11.5878 17.9971 12.002 17.996L11.998 16.496ZM0.75 12H0H0.75ZM23.25 12H24H23.25ZM12 0.75V0V0.75ZM9.75 9.00014C9.75008 8.58766 9.86354 8.18314 10.078 7.83079L8.79665 7.05094C8.43924 7.63819 8.25013 8.31239 8.25 8.99986L9.75 9.00014ZM10.078 7.83079C10.2924 7.47844 10.5996 7.19182 10.966 7.00226L10.2766 5.67005C9.66603 5.98599 9.15407 6.46369 8.79665 7.05094L10.078 7.83079ZM10.966 7.00226C11.3323 6.81269 11.7437 6.72748 12.1552 6.75593L12.2587 5.2595C11.5728 5.21209 10.8872 5.35411 10.2766 5.67005L10.966 7.00226ZM12.1552 6.75593C12.5667 6.78438 12.9624 6.9254 13.2992 7.16358L14.1654 5.93892C13.6041 5.54196 12.9445 5.30692 12.2587 5.2595L12.1552 6.75593ZM13.2992 7.16358C13.636 7.40176 13.9008 7.72792 14.0647 8.10643L15.4412 7.51034C15.168 6.87949 14.7266 6.33588 14.1654 5.93892L13.2992 7.16358ZM14.0647 8.10643C14.2286 8.48494 14.2853 8.90123 14.2286 9.3098L15.7144 9.51595C15.8089 8.835 15.7144 8.14119 15.4412 7.51034L14.0647 8.10643ZM14.2286 9.3098C14.172 9.71836 14.0041 10.1035 13.7433 10.4231L14.9055 11.3714C15.3401 10.8388 15.6199 10.1969 15.7144 9.51595L14.2286 9.3098ZM13.7433 10.4231C13.4825 10.7427 13.1389 10.9844 12.75 11.1219L13.25 12.5361C13.8981 12.307 14.4708 11.904 14.9055 11.3714L13.7433 10.4231ZM12.75 11.1219C12.3111 11.2771 11.9312 11.5645 11.6625 11.9447L12.8875 12.8104C12.9771 12.6836 13.1037 12.5878 13.25 12.5361L12.75 11.1219ZM11.6625 11.9447C11.3939 12.3248 11.2498 12.7789 11.25 13.2444L12.75 13.2436C12.7499 13.0884 12.798 12.9371 12.8875 12.8104L11.6625 11.9447ZM11.25 13.244V14.25H12.75V13.244H11.25ZM11.9999 16.5C11.7769 16.5 11.5589 16.5663 11.3737 16.6905L12.2088 17.9365C12.147 17.9779 12.0744 18 12 18L11.9999 16.5ZM11.3737 16.6905C11.1884 16.8146 11.0443 16.991 10.9595 17.1973L12.3468 17.7676C12.3186 17.8363 12.2705 17.8951 12.2088 17.9365L11.3737 16.6905ZM10.9595 17.1973C10.8747 17.4036 10.8531 17.6304 10.8975 17.8489L12.3675 17.5504C12.3823 17.6232 12.3751 17.6988 12.3468 17.7676L10.9595 17.1973ZM10.8975 17.8489C10.9419 18.0675 11.0502 18.2679 11.2088 18.4247L12.2637 17.3584C12.3166 17.4107 12.3527 17.4775 12.3675 17.5504L10.8975 17.8489ZM11.2088 18.4247C11.3673 18.5816 11.5689 18.6878 11.7879 18.7298L12.0707 17.2567C12.1437 17.2707 12.2109 17.3061 12.2637 17.3584L11.2088 18.4247ZM11.7879 18.7298C12.0069 18.7719 12.2335 18.7479 12.4388 18.6609L11.8537 17.2797C11.9222 17.2507 11.9977 17.2427 12.0707 17.2567L11.7879 18.7298ZM12.4388 18.6609C12.6442 18.5739 12.819 18.4278 12.9412 18.2413L11.6863 17.4196C11.727 17.3574 11.7853 17.3087 11.8537 17.2797L12.4388 18.6609ZM12.9412 18.2413C13.0634 18.0547 13.1273 17.836 13.1249 17.613L11.625 17.629C11.6242 17.5547 11.6455 17.4818 11.6863 17.4196L12.9412 18.2413ZM13.125 17.623C13.1254 17.4749 13.0965 17.3282 13.04 17.1913L11.6534 17.7634C11.6345 17.7176 11.6248 17.6685 11.625 17.619L13.125 17.623ZM13.04 17.1913C12.9835 17.0543 12.9005 16.9299 12.7958 16.8252L11.7351 17.8859C11.7001 17.8508 11.6723 17.8092 11.6534 17.7634L13.04 17.1913ZM12.7958 16.8252C12.691 16.7205 12.5666 16.6375 12.4297 16.581L11.8576 17.9676C11.8118 17.9487 11.7701 17.9209 11.7351 17.8859L12.7958 16.8252ZM12.4297 16.581C12.2928 16.5245 12.1461 16.4956 11.998 16.496L12.002 17.996C11.9524 17.9961 11.9034 17.9865 11.8576 17.9676L12.4297 16.581ZM0 12C0 15.1826 1.26428 18.2348 3.51472 20.4853L4.57538 19.4246C2.60625 17.4555 1.5 14.7848 1.5 12H0ZM3.51472 20.4853C5.76516 22.7357 8.8174 24 12 24V22.5C9.21523 22.5 6.54451 21.3938 4.57538 19.4246L3.51472 20.4853ZM12 24C15.1826 24 18.2348 22.7357 20.4853 20.4853L19.4246 19.4246C17.4555 21.3938 14.7848 22.5 12 22.5V24ZM20.4853 20.4853C22.7357 18.2348 24 15.1826 24 12H22.5C22.5 14.7848 21.3938 17.4555 19.4246 19.4246L20.4853 20.4853ZM24 12C24 8.8174 22.7357 5.76516 20.4853 3.51472L19.4246 4.57538C21.3938 6.54451 22.5 9.21523 22.5 12H24ZM20.4853 3.51472C18.2348 1.26428 15.1826 0 12 0V1.5C14.7848 1.5 17.4555 2.60625 19.4246 4.57538L20.4853 3.51472ZM12 0C8.8174 0 5.76516 1.26428 3.51472 3.51472L4.57538 4.57538C6.54451 2.60625 9.21523 1.5 12 1.5V0ZM3.51472 3.51472C1.26428 5.76516 0 8.8174 0 12H1.5C1.5 9.21523 2.60625 6.54451 4.57538 4.57538L3.51472 3.51472Z" fill="white"/>
</svg>
