<svg width="32" height="32" viewBox="0 0 32 32" fill="none" xmlns="http://www.w3.org/2000/svg">
<g clip-path="url(#clip0_204_5624)">
<rect width="32" height="32" fill="#461E96"/>
<path d="M18.6381 18.6376L23.0312 23.0313M9.42001 16.8482C10.0076 18.2308 11.1204 19.3233 12.5135 19.8855C13.9066 20.4476 15.466 20.4333 16.8486 19.8458C18.2313 19.2582 19.3238 18.1454 19.886 16.7523C20.4481 15.3591 20.4338 13.7997 19.8462 12.4171C19.2587 11.0345 18.1459 9.94195 16.7527 9.37979C15.3596 8.81764 13.8002 8.83193 12.4176 9.41952C11.035 10.0071 9.94244 11.1199 9.38028 12.513C8.81812 13.9062 8.83241 15.4656 9.42001 16.8482Z" stroke="white" stroke-width="1.5" stroke-linecap="round" stroke-linejoin="round"/>
</g>
<defs>
<clipPath id="clip0_204_5624">
<path d="M0 0H28C30.2091 0 32 1.79086 32 4V28C32 30.2091 30.2091 32 28 32H0V0Z" fill="white"/>
</clipPath>
</defs>
</svg>
