<svg width="48" height="43" viewBox="0 0 48 43" fill="none" xmlns="http://www.w3.org/2000/svg">
<path d="M20.3002 29.9211L17.9242 21.5211H19.3762L21.1402 28.0851L23.0482 21.5211H24.3202L26.2162 28.0851L27.9802 21.5211H29.4322L27.0562 29.9211H25.4602L23.6842 23.7891L21.8962 29.9211H20.3002Z" fill="#3B3B3B"/>
<path d="M28.4884 31.4332L34.5959 37.3762M15.673 29.0128C16.4899 30.883 18.0369 32.3607 19.9737 33.1211C21.9105 33.8815 24.0785 33.8622 26.0006 33.0674C27.9228 32.2726 29.4417 30.7675 30.2232 28.8831C31.0048 26.9988 30.9849 24.8895 30.168 23.0194C29.3511 21.1493 27.8041 19.6715 25.8673 18.9111C23.9305 18.1508 21.7625 18.1701 19.8404 18.9649C17.9182 19.7596 16.3993 21.2648 15.6177 23.1491C14.8362 25.0335 14.8561 27.1427 15.673 29.0128Z" stroke="#3B3B3B" stroke-width="2" stroke-linecap="round" stroke-linejoin="round"/>
<rect x="0.5" y="1.36841" width="14.1579" height="4.89474" rx="1.5" stroke="#3B3B3B"/>
<rect x="17.3421" y="1.36841" width="8.26316" height="4.89474" rx="1.5" stroke="#3B3B3B"/>
<rect x="28.2895" y="1.36841" width="5.73684" height="4.89474" rx="1.5" stroke="#3B3B3B"/>
<rect x="36.7105" y="1.36841" width="10.7895" height="4.89474" rx="1.5" stroke="#3B3B3B"/>
<rect x="40.0789" y="8.94751" width="7.42105" height="4.89474" rx="1.5" stroke="#3B3B3B"/>
<rect x="12.2895" y="8.94751" width="8.26316" height="4.89474" rx="1.5" stroke="#3B3B3B"/>
<rect x="0.5" y="8.94751" width="8.26316" height="4.89474" rx="1.5" stroke="#3B3B3B"/>
<rect x="23.2368" y="8.94751" width="14.1579" height="4.89474" rx="1.5" stroke="#3B3B3B"/>
<rect x="4.21053" y="15.1843" width="0.842105" height="0.842105" rx="0.421053" fill="#3B3B3B"/>
<rect x="4.21053" y="17.7104" width="0.842105" height="0.842105" rx="0.421053" fill="#3B3B3B"/>
<rect x="4.21053" y="20.2368" width="0.842105" height="1.68421" rx="0.421053" fill="#3B3B3B"/>
<rect x="-0.199233" y="0.199233" width="14.1505" height="0.398466" rx="0.199233" transform="matrix(-1 0 0 1 47.2265 22.4282)" fill="black" stroke="#3B3B3B" stroke-width="0.398466"/>
<rect x="-0.199233" y="0.199233" width="14.1505" height="0.398466" rx="0.199233" transform="matrix(-1 0 0 1 47.2265 33.6992)" fill="black" stroke="#3B3B3B" stroke-width="0.398466"/>
<rect x="0.240196" y="0.240196" width="11.5874" height="0.480392" rx="0.240196" transform="matrix(5.88984e-08 1 1 -3.24404e-08 46.6642 22.4282)" fill="black" stroke="#3B3B3B" stroke-width="0.480392"/>
<rect x="0.835311" y="22.6839" width="12.9591" height="0.398466" rx="0.199233" fill="black" stroke="#3B3B3B" stroke-width="0.398466"/>
<rect x="0.835311" y="33.9551" width="12.9591" height="0.398466" rx="0.199233" fill="black" stroke="#3B3B3B" stroke-width="0.398466"/>
<rect x="1.29768" y="22.7051" width="11.6268" height="0.441053" rx="0.220527" transform="rotate(90 1.29768 22.7051)" fill="black" stroke="#3B3B3B" stroke-width="0.441053"/>
</svg>
