<svg width="18" height="18" viewBox="0 0 18 18" fill="none" xmlns="http://www.w3.org/2000/svg">
<path d="M0.761719 3.90909H16.7617M7.12535 13.1818V7.72727M10.3981 13.1818V7.72727M10.3981 1H7.12535C6.83603 1 6.55855 1.11493 6.35396 1.31952C6.14938 1.5241 6.03444 1.80158 6.03444 2.09091V3.90909H11.489V2.09091C11.489 1.80158 11.3741 1.5241 11.1695 1.31952C10.9649 1.11493 10.6874 1 10.3981 1ZM13.7508 15.9964C13.7306 16.2697 13.6075 16.5252 13.4065 16.7114C13.2054 16.8976 12.9412 17.0007 12.6672 17H4.85626C4.5822 17.0007 4.31804 16.8976 4.11697 16.7114C3.9159 16.5252 3.79286 16.2697 3.77263 15.9964L2.76172 3.90909H14.7617L13.7508 15.9964Z" stroke="#3B3B3B" stroke-width="1.5" stroke-linecap="round" stroke-linejoin="round"/>
</svg>
