<svg width="24" height="21" viewBox="0 0 24 21" fill="none" xmlns="http://www.w3.org/2000/svg">
<path fill-rule="evenodd" clip-rule="evenodd" d="M11.8707 2.65174C10.1897 0.961736 8.43773 0.136737 6.76773 0.0157367C4.90973 -0.119263 3.26373 0.625737 2.07073 1.81174C-0.282273 4.14774 -1.00727 8.36874 1.90873 11.2847C1.91719 11.2936 1.92586 11.3023 1.93473 11.3107L11.3667 19.8537C11.5047 19.9787 11.6841 20.0479 11.8702 20.0479C12.0563 20.0479 12.2358 19.9787 12.3737 19.8537L21.8057 11.3107C21.8149 11.3023 21.8239 11.2936 21.8327 11.2847C24.7327 8.38474 24.0037 4.16374 21.6587 1.82474C20.4687 0.637737 18.8257 -0.111263 16.9697 0.0197368C15.3007 0.138737 13.5507 0.961736 11.8697 2.65174H11.8707ZM18.4437 6.26674C18.5835 6.13102 18.665 5.94624 18.6709 5.75152C18.6768 5.55679 18.6068 5.36739 18.4755 5.22341C18.3443 5.07944 18.1622 4.99218 17.9677 4.98011C17.7733 4.96803 17.5818 5.0321 17.4337 5.15874L10.8097 11.1917L8.11673 8.75774C7.96839 8.63017 7.77607 8.56561 7.5808 8.57784C7.38554 8.59008 7.20278 8.67813 7.07152 8.82322C6.94027 8.96831 6.8709 9.15894 6.87822 9.35445C6.88555 9.54997 6.96898 9.73488 7.11073 9.86974L10.3087 12.7597C10.4468 12.8848 10.6266 12.954 10.8129 12.9538C10.9993 12.9536 11.1789 12.8841 11.3167 12.7587L18.4437 6.26674Z" fill="#461E96"/>
</svg>
