<svg width="48" height="48" viewBox="0 0 48 48" fill="none" xmlns="http://www.w3.org/2000/svg">
<path d="M41.9317 17.6277L38.8624 16.7451L38.4599 15.3655C39.2078 14.6225 39.607 13.9098 39.8692 12.8488C40.4541 12.4552 40.7945 11.6896 40.7945 10.7294V10.4301C40.7945 10.1782 40.7282 9.94499 40.6207 9.74099C40.6207 9.74099 41.0577 6.61144 40.2808 5.62484C39.584 4.74054 38.2316 4.27519 35.6114 4.01884C34.5387 3.91534 33.7681 4.26174 33.3804 4.50104C32.8404 4.37724 31.7212 4.22759 30.8941 4.82869C30.4908 5.12189 30.0103 5.71249 30.0113 6.86194C30.0113 6.86194 30.004 8.05244 30.04 8.42804C29.8572 8.44249 29.6747 8.48344 29.4991 8.55874C29.3501 8.62319 29.2232 8.57949 29.1612 8.54774C29.0992 8.51599 28.9893 8.43934 28.9532 8.28114C28.8199 7.69104 28.3965 7.22719 27.8209 7.04039C27.2447 6.85409 26.63 6.98084 26.1763 7.37949C26.0548 7.48594 25.9219 7.48324 25.855 7.47249C25.7867 7.46174 25.6602 7.42294 25.5782 7.28499C25.2691 6.76474 24.7227 6.45394 24.1177 6.45394C23.5123 6.45394 22.9654 6.76449 22.6558 7.28524C22.5914 7.39339 22.4722 7.42684 22.4068 7.43709C22.2593 7.46004 22.1016 7.41729 21.9956 7.32429C21.5532 6.93609 20.9258 6.80939 20.3613 6.99374C19.8281 7.16659 19.438 7.58699 19.3179 8.11779C19.2691 8.33164 19.1216 8.43494 19.0381 8.47744C18.9798 8.50764 18.8761 8.54259 18.7381 8.52719C18.1641 6.85579 16.7855 6.25174 15.899 6.13244C14.9463 4.98104 13.6245 4.35044 12.148 4.35044H12.1465C10.2071 4.35119 8.2046 5.42274 6.91995 7.14689C5.58745 8.93454 5.15235 11.6509 5.86185 13.7522C6.11775 14.5113 5.91615 16.4896 5.70195 17.7691C4.68485 18.2227 4 19.2441 4 20.3813V23.665C4 23.8205 4.06055 23.9702 4.16845 24.082C6.374 26.3645 9.33155 27.6214 12.4961 27.6214C13.8334 27.6214 15.1347 27.3939 16.3763 26.9504C16.4115 27.4465 16.6583 27.9003 17.0713 28.2C17.3682 28.4154 17.7148 28.5257 18.0659 28.5257C18.293 28.5257 18.522 28.4793 18.7398 28.3856C18.9725 28.2858 19.6314 27.9479 20.0773 27.7166C20.1473 27.7874 20.2169 27.8581 20.2903 27.9258L19.7164 29.9549L15.545 31.1547C14.0152 31.5941 12.9468 33.0155 12.9468 34.6103V40.3306C12.9468 40.5347 13.0508 40.7252 13.2222 40.8355C16.443 42.9059 20.1695 44.0001 24.0001 44.0001C27.8307 44.0001 31.5573 42.9059 34.778 40.8355C34.9494 40.7252 35.0533 40.5347 35.0533 40.3306V34.6079C35.0533 33.0131 33.985 31.5917 32.4557 31.1522L28.2897 29.954L27.7003 27.9341C27.7628 27.8767 27.8232 27.8176 27.8832 27.758C28.3812 27.9476 29.2358 28.2747 29.4943 28.3856C30.0499 28.6243 30.6745 28.5545 31.1632 28.2C31.556 27.915 31.7973 27.4904 31.8503 27.0192C33.0255 27.4115 34.249 27.6214 35.5041 27.6214C38.6687 27.6214 41.6261 26.3645 43.8317 24.082C43.9396 23.9702 44.0002 23.8205 44.0002 23.665V20.3793C44.0002 19.1095 43.1495 17.978 41.9317 17.6277ZM31.2115 6.86039C31.2111 6.34499 31.341 5.98854 31.5973 5.80079C32.0856 5.44459 33.0006 5.62499 33.3097 5.72364C33.5094 5.78809 33.7336 5.73904 33.8922 5.60354C33.9151 5.58329 34.4801 5.11404 35.4942 5.21314C37.6934 5.42824 38.879 5.78419 39.338 6.36744C39.7477 6.88754 39.679 7.75934 39.5062 9.03839H39.0972L39.0723 8.69169C39.0045 7.75809 38.2193 7.02664 37.2847 7.02664H34.6637V8.22684H37.2847C37.5933 8.22684 37.8526 8.46929 37.8751 8.77884L37.941 9.68219C37.9639 9.99569 38.2252 10.2386 38.5396 10.2386L39.5152 10.2376C39.5328 10.2442 39.5865 10.605 39.5943 10.7293C39.6315 11.3184 39.4072 11.7777 39.1173 11.8968C38.9346 11.9718 38.8004 12.1324 38.7589 12.3255C38.5205 13.4332 38.1978 13.9971 37.379 14.7393C36.9271 15.1488 36.1768 15.4107 35.5896 15.5125C35.6234 15.2637 35.6048 15.0065 35.5235 14.7564C35.337 14.1824 34.8741 13.7598 34.2857 13.6255C34.126 13.5891 34.0484 13.4785 34.0166 13.416C33.9844 13.3533 33.9405 13.2256 34.0049 13.075C34.2427 12.5188 34.1719 11.8948 33.8164 11.4055C33.4605 10.9165 32.8877 10.657 32.2866 10.7124C32.125 10.7263 32.02 10.6472 31.9712 10.5984C31.9223 10.5496 31.8423 10.4436 31.8584 10.2702C31.9078 9.72149 31.6939 9.20039 31.2851 8.84384C31.2851 8.84384 31.2115 6.99714 31.2115 6.86039ZM7.88195 7.86384C8.94495 6.43729 10.5792 5.55079 12.1466 5.55059H12.1481C12.9825 5.55059 14.1735 5.81404 15.1085 7.06769C15.2184 7.21489 15.3942 7.30379 15.5773 7.30889C15.7192 7.31294 16.7843 7.38234 17.3891 8.44149C17.2443 8.49339 17.104 8.56149 16.9752 8.65684C16.5177 8.99474 16.2809 9.53454 16.3419 10.1014L16.3512 10.1896C16.3717 10.3783 16.2794 10.5033 16.2228 10.5609C16.1632 10.6212 16.0314 10.7172 15.8268 10.7016L15.7311 10.6928C15.1681 10.6393 14.6423 10.8825 14.3126 11.3371C13.983 11.7917 13.9196 12.3708 14.1603 12.9279C14.2472 13.1284 14.1886 13.2988 14.1462 13.3825C14.1037 13.466 14.0007 13.6137 13.7878 13.6623C13.259 13.7829 12.84 14.1721 12.6672 14.7034C12.5739 14.9904 12.5608 15.2928 12.6201 15.5791C12.1209 15.5563 11.4977 15.3444 10.9484 14.9788C10.0627 14.3894 9.45525 13.5105 9.23745 12.499C9.1403 12.0646 9.15445 11.5195 9.1857 11.1269L9.36 11.1308C12.299 11.2001 13.3942 11.2257 15.0445 9.71404L14.234 8.82924C12.9401 10.0148 12.1881 9.99574 9.3883 9.93109L8.6642 9.91474C8.3434 9.91814 8.10755 10.1232 8.0592 10.4179C8.0504 10.4724 7.8434 11.7666 8.06555 12.7568C8.28115 13.7584 8.79215 14.6601 9.5305 15.3709L9.1417 16.7461L6.978 17.3682C7.1418 16.2192 7.3296 14.3493 6.99865 13.3684C6.40785 11.6181 6.7711 9.35459 7.88195 7.86384ZM5.2003 23.4185V20.3811C5.2003 19.6433 5.69345 18.9861 6.4005 18.783L9.79405 17.8071C9.99325 17.7498 10.1491 17.5935 10.2052 17.3938L10.5606 16.1368C11.274 16.551 12.034 16.781 12.7066 16.781C12.8456 16.781 12.9789 16.7681 13.1089 16.7493C13.1084 16.7526 13.11 16.7559 13.1095 16.7593C13.0988 16.8257 13.0651 16.9465 12.9416 17.0203C12.426 17.3286 12.1178 17.8719 12.1178 18.4729C12.1178 19.074 12.4259 19.6175 12.942 19.9266C13.0861 20.0128 13.1265 20.1453 13.1383 20.2169C13.1495 20.2882 13.1519 20.4268 13.0412 20.5536C12.6456 21.0072 12.5206 21.6195 12.7067 22.1918C12.8932 22.7641 13.3547 23.1854 13.9411 23.319C14.1032 23.3561 14.1818 23.4681 14.2146 23.5319C14.2468 23.5956 14.2917 23.7255 14.2262 23.8786C13.9894 24.433 14.0598 25.0554 14.4143 25.5432C14.5885 25.7826 14.8154 25.9662 15.0718 26.0853C14.2355 26.2999 13.3762 26.4211 12.4963 26.4211C9.73995 26.4211 7.1583 25.3566 5.2003 23.4185ZM21.4039 18.4272C21.4312 18.3432 21.4952 18.3091 21.5308 18.2959C21.5665 18.2832 21.6373 18.268 21.7139 18.3159L21.9464 18.4611C22.5371 18.8298 23.2969 18.7155 23.753 18.1926C23.7535 18.1926 23.8125 18.1247 23.8125 18.1247C23.8678 18.0615 23.9507 18.0529 23.9722 18.0534C24.0083 18.0539 24.0767 18.0642 24.1299 18.1289C24.6001 18.6955 25.4116 18.8064 26.0171 18.3867L26.1899 18.2668C26.2558 18.2204 26.3218 18.2267 26.3569 18.2353C26.3906 18.2433 26.4536 18.2675 26.4912 18.3376L26.7354 18.788C27.0283 19.3295 27.6323 19.6157 28.2364 19.5012L28.4917 19.4526L28.7222 20.8484C28.7695 21.1382 29.0205 21.3508 29.314 21.3508C29.4375 21.3508 29.5752 21.5271 29.5752 21.7632C29.5752 22.8032 29.2886 23.6194 28.8618 23.7945C28.6787 23.8694 28.5444 24.0298 28.5029 24.2232C28.1987 25.6324 27.3681 26.8369 26.1636 27.6158C25.9459 27.7566 25.5106 28.0381 25.293 28.1788C24.5078 28.6866 23.4922 28.6866 22.707 28.1788C22.4894 28.0381 22.0541 27.7566 21.8364 27.6158C20.6319 26.8369 19.8013 25.6324 19.4971 24.2232C19.4556 24.0298 19.3213 23.8694 19.1382 23.7945C18.7812 23.648 18.4214 22.9038 18.4248 21.7647C18.4253 21.5635 18.4795 21.4231 18.5332 21.3733C18.5415 21.3655 18.5596 21.3484 18.6197 21.3484C18.6275 21.3484 18.6358 21.3487 18.6451 21.3494C18.9532 21.3675 19.2339 21.1482 19.2798 20.8389L19.4917 19.4095L19.8872 19.4537C20.5459 19.5269 21.1772 19.1229 21.3828 18.4908L21.4039 18.4272ZM33.8531 39.9994C30.8907 41.8324 27.4913 42.7997 24 42.7997C20.5088 42.7997 17.1095 41.8324 14.147 39.9994V34.6101C14.147 34.452 14.1673 34.298 14.1974 34.1469L21.751 36.8275C22.4761 37.0853 23.2378 37.2137 24 37.2137C24.7617 37.2137 25.5239 37.0848 26.249 36.8275L33.8031 34.1466C33.833 34.2971 33.8531 34.4504 33.8531 34.6077L33.8531 39.9994ZM32.1241 32.3054C32.5854 32.4379 32.9782 32.7093 33.2758 33.0604L25.8477 35.6966C24.6563 36.1194 23.3438 36.1194 22.1524 35.6966L14.726 33.0611C15.0235 32.7109 15.4159 32.4401 15.8765 32.3078L20.3687 31.0158C20.5679 30.9582 20.7237 30.802 20.7799 30.6022L21.3156 28.7081C21.3156 28.7081 21.8708 29.067 22.0557 29.1867C22.6461 29.5685 23.3233 29.7594 24.0001 29.7594C24.6768 29.7594 25.3541 29.5685 25.9444 29.1867C26.1276 29.0682 26.6772 28.7128 26.6772 28.7128L27.2301 30.6071C27.2877 30.8049 27.4425 30.9587 27.6402 31.0158L32.1241 32.3054ZM30.6626 26.7789C30.6861 27.0338 30.5279 27.1783 30.4585 27.2282C30.3888 27.279 30.2027 27.3844 29.9678 27.2829C29.7498 27.1892 29.1737 26.9664 28.6901 26.7813C29.1045 26.1676 29.42 25.4856 29.6109 24.7506C30.355 24.2648 30.7754 23.2003 30.7754 21.7633C30.7754 21.0792 30.3872 20.493 29.8409 20.2593L29.5757 18.6511C29.5498 18.4917 29.4601 18.3496 29.3277 18.2571C29.1953 18.1645 29.0318 18.1304 28.8721 18.1592L28.0127 18.3223C27.9248 18.3391 27.834 18.2969 27.7906 18.2158L27.5469 17.7671C27.3565 17.4155 27.024 17.1606 26.6348 17.0678C26.2447 16.975 25.834 17.0534 25.5064 17.2802L25.3336 17.4003C25.2437 17.4631 25.1231 17.446 25.0538 17.3625C24.7896 17.0444 24.4009 16.8588 23.9874 16.8534H23.9693C23.5626 16.8534 23.1764 17.0285 22.9083 17.3356L22.8497 17.403C22.7808 17.4809 22.6685 17.4975 22.5518 17.4245L22.3482 17.2971C21.9781 17.0661 21.5308 17.0192 21.1212 17.1682C20.7115 17.3169 20.3986 17.6401 20.2633 18.0547C20.2633 18.0549 20.2423 18.1189 20.2423 18.1191C20.2115 18.2126 20.1187 18.272 20.0206 18.2612L19.0499 18.1526C18.7213 18.1145 18.4371 18.3415 18.3893 18.6609L18.1573 20.2256C17.9942 20.2835 17.8458 20.3738 17.7154 20.4952C17.4004 20.7884 17.2261 21.2384 17.2247 21.7616C17.2208 23.1515 17.6592 24.2555 18.3882 24.7467C18.5776 25.4776 18.8904 26.1559 19.3007 26.7671C18.859 26.9947 18.4163 27.2187 18.2667 27.2829C18.0318 27.3844 17.8453 27.279 17.776 27.2282C17.7066 27.1784 17.5484 27.0338 17.5719 26.7785C17.6148 26.3039 17.4454 25.838 17.108 25.5011C16.7711 25.1647 16.3033 24.9977 15.8316 25.0397C15.5792 25.0612 15.4347 24.9059 15.3849 24.837C15.3351 24.7687 15.2296 24.5841 15.3296 24.35C15.5176 23.9098 15.5006 23.4129 15.2832 22.9867C15.0659 22.5606 14.6739 22.2552 14.2076 22.149C13.9609 22.0929 13.8741 21.9005 13.8477 21.8204C13.8218 21.7401 13.7788 21.5333 13.9453 21.3426C14.2608 20.9813 14.3984 20.5025 14.3233 20.0289C14.2482 19.5552 13.9688 19.1424 13.5577 18.8965C13.3414 18.7669 13.318 18.5574 13.318 18.4732C13.318 18.3889 13.3414 18.1795 13.5718 18.0415C13.9576 17.8108 14.2208 17.4119 14.2945 16.947C14.3736 16.447 14.2256 15.925 13.899 15.5508C13.7901 15.4263 13.7549 15.2395 13.8082 15.0747C13.838 14.9829 13.9054 14.8664 14.0543 14.8322C14.5587 14.7175 14.9825 14.3867 15.2164 13.9252C15.4503 13.4638 15.4669 12.9267 15.2438 12.4101C15.1671 12.2331 15.2467 12.0932 15.2843 12.0412C15.3224 11.9892 15.4342 11.8727 15.6212 11.8876L15.7174 11.8967C16.2287 11.9426 16.7242 11.7626 17.0787 11.4023C17.4283 11.0466 17.5983 10.5575 17.5441 10.0597L17.5348 9.97184C17.5133 9.77434 17.6349 9.66129 17.6881 9.62199C17.7413 9.58269 17.8844 9.49919 18.1037 9.59344C18.5812 9.79854 19.1208 9.78169 19.5827 9.54679C20.0431 9.31219 20.3732 8.88809 20.4879 8.38294C20.5221 8.23229 20.6392 8.16494 20.7315 8.13514C20.8629 8.09314 21.0548 8.09484 21.2037 8.22619C21.5762 8.55309 22.0953 8.70009 22.5948 8.62244C23.0591 8.54869 23.4576 8.28479 23.6871 7.89854C23.8184 7.67784 24.0313 7.65389 24.1173 7.65389C24.2027 7.65389 24.4156 7.67784 24.547 7.89854C24.7901 8.30674 25.1983 8.58339 25.6671 8.65759C26.1378 8.73329 26.6099 8.59509 26.9679 8.28134C27.1598 8.11264 27.3702 8.15514 27.4503 8.18174C27.5318 8.20809 27.7266 8.29649 27.7833 8.54649C27.8887 9.01084 28.1925 9.40124 28.6168 9.61709C29.0411 9.83339 29.5362 9.84879 29.9727 9.66129C30.2076 9.56094 30.3917 9.66619 30.46 9.71549C30.5289 9.76554 30.6861 9.90884 30.6617 10.1757C30.6192 10.6486 30.7877 11.1122 31.1231 11.4477C31.4596 11.7831 31.9249 11.9521 32.3956 11.9074C32.6412 11.8855 32.7955 12.0424 32.8458 12.1118C32.8961 12.1809 33.0025 12.3674 32.9014 12.6037C32.7144 13.042 32.731 13.5368 32.9478 13.9614C33.1641 14.3857 33.5548 14.69 34.0191 14.7957C34.2682 14.8526 34.3561 15.0469 34.3825 15.1277C34.4088 15.2085 34.4518 15.4175 34.2838 15.6097C33.9698 15.9693 33.8326 16.4459 33.9073 16.9176C33.9815 17.3893 34.2594 17.8006 34.6695 18.0463C34.8883 18.1771 34.9118 18.3886 34.9118 18.4735C34.9118 18.5582 34.8883 18.7697 34.6695 18.9005C34.2599 19.1459 33.982 19.557 33.9073 20.0287C33.8326 20.5004 33.9698 20.9772 34.2838 21.3369C34.4517 21.5293 34.4088 21.7382 34.3825 21.8191C34.3561 21.8999 34.2677 22.0942 34.0191 22.1509C33.5543 22.2568 33.1637 22.5613 32.9473 22.9856C32.7311 23.4102 32.7144 23.9048 32.9014 24.3431C33.0025 24.5794 32.8961 24.7654 32.8458 24.8348C32.7955 24.9041 32.6534 25.0633 32.3951 25.0389C31.9195 24.9949 31.4586 25.1639 31.1231 25.4993C30.7872 25.8348 30.6192 26.298 30.6626 26.7789ZM42.7999 23.4185C40.8419 25.3565 38.2603 26.421 35.5039 26.421C34.6738 26.421 33.8604 26.3126 33.0668 26.1208C33.3609 26.0047 33.6212 25.8087 33.8164 25.5407C34.1719 25.0514 34.2427 24.4274 34.0049 23.8715C33.9405 23.7208 33.9844 23.5931 34.0166 23.5304C34.0484 23.4679 34.126 23.3571 34.2857 23.3207C34.8741 23.1867 35.3365 22.7641 35.5235 22.1903C35.71 21.6166 35.5845 21.0026 35.188 20.5477C35.0791 20.423 35.0811 20.2865 35.0924 20.2162C35.1036 20.1459 35.1436 20.0152 35.2857 19.9303C35.8028 19.6209 36.1119 19.0763 36.1119 18.4735C36.1119 17.8707 35.8033 17.3257 35.2857 17.0162C35.1582 16.9399 35.1145 16.8291 35.0984 16.7559C35.7869 16.7557 36.6912 16.5324 37.4352 16.1388L37.8028 17.3985C37.8604 17.596 38.0152 17.7503 38.2129 17.8072L41.5996 18.7811C42.3067 18.9842 42.7999 19.6414 42.7999 20.3792V23.4185Z" fill="#461E96"/>
</svg>
