<svg width="48" height="49" viewBox="0 0 48 49" fill="none" xmlns="http://www.w3.org/2000/svg">
<path d="M14 15.5V14.8999H34V16.1001H14V15.5ZM14 26.1001H34V24.8999H14V26.1001ZM14 21.1001H34V19.8999H14V21.1001ZM14 31.1001H34V29.8999H14V31.1001ZM14 36.1001H24V34.8999H14V36.1001ZM39.6001 9.08985V41.8999C39.6001 43.3335 38.4336 44.5 37 44.5H11C9.5664 44.5 8.3999 43.3335 8.3999 41.8999V9.08985C8.3999 7.65625 9.5664 6.48975 11 6.48975H15.8999V6.1001C15.8999 5.2178 16.6177 4.5 17.5 4.5H30.5C31.3823 4.5 32.1001 5.21775 32.1001 6.1001V6.48975H37C38.4336 6.48975 39.6001 7.65625 39.6001 9.08985ZM17.1001 8.5H30.8999V6.1001C30.8999 5.87965 30.7207 5.7002 30.5 5.7002H17.5C17.2793 5.7002 17.1001 5.87965 17.1001 6.1001V8.5ZM38.3999 9.08985C38.3999 8.3179 37.772 7.68995 37 7.68995H32.1001V9.1001C32.1001 9.4314 31.8316 9.7002 31.5 9.7002H16.5C16.1685 9.7002 15.8999 9.4314 15.8999 9.1001V7.68995H11C10.2281 7.68995 9.6001 8.3179 9.6001 9.08985V41.8999C9.6001 42.6718 10.2281 43.2998 11 43.2998H37C37.772 43.2998 38.3999 42.6718 38.3999 41.8999V9.08985Z" fill="#461E96"/>
</svg>
