<svg width="40" height="41" viewBox="0 0 40 41" fill="none" xmlns="http://www.w3.org/2000/svg">
<path d="M20 0.5C8.97215 0.5 0 9.4719 0 20.5C0 31.5281 8.97215 40.5 20 40.5C31.0279 40.5 40 31.5279 40 20.5C40 9.47215 31.0279 0.5 20 0.5ZM10.8999 20.5C10.8999 18.3034 11.1312 16.3448 11.5079 14.6001H19.3999V26.3999H11.5078C11.1311 24.6552 10.8999 22.6966 10.8999 20.5ZM19.3999 13.3999H11.7961C12.7273 9.9428 14.2334 7.43645 15.5781 5.74805C17.035 3.9189 18.5042 2.7699 19.4 2.1657L19.3999 13.3999ZM20.6001 2.16575C21.4961 2.7701 22.9653 3.9191 24.4219 5.74805C25.7666 7.43645 27.2727 9.9428 28.2039 13.3999H20.6001L20.6001 2.16575ZM19.3999 27.6001V38.8341C18.5039 38.2298 17.0347 37.0809 15.5781 35.2519C14.2333 33.5635 12.7273 31.0573 11.7961 27.6001H19.3999ZM20.6001 27.6001H28.2039C27.2727 31.0573 25.7666 33.5635 24.4219 35.2519C22.9653 37.0809 21.4961 38.2298 20.6001 38.8341V27.6001ZM20.6001 26.3999V14.6001H28.4921C28.8688 16.3448 29.1001 18.3034 29.1001 20.5C29.1001 22.6966 28.8688 24.6552 28.4921 26.3999H20.6001ZM29.7165 14.6001H37.8462C38.4617 16.457 38.7998 18.4393 38.7998 20.5C38.7998 22.5607 38.4617 24.5429 37.8462 26.3999H29.7164C30.0784 24.6399 30.3003 22.6824 30.3003 20.5C30.3003 18.327 30.0819 16.369 29.7165 14.6001ZM37.4033 13.3999H29.44C27.8309 7.148 24.3294 3.54485 22.1465 1.82635C29.0668 2.6169 34.8555 7.17785 37.4033 13.3999ZM17.8177 1.83095C16.9187 2.5334 15.8025 3.5497 14.6816 4.9473C13.2017 6.79315 11.541 9.5643 10.5595 13.4H2.5967C5.14015 7.1887 10.9132 2.63315 17.8177 1.83095ZM2.1538 14.6001H10.2836C9.92155 16.3601 9.6997 18.3176 9.6997 20.5C9.6997 22.673 9.91805 24.631 10.2835 26.3999H2.1538C1.5383 24.5429 1.2002 22.5607 1.2002 20.5C1.2002 18.4393 1.5383 16.457 2.1538 14.6001ZM2.59675 27.6001H10.56C12.1691 33.8519 15.6704 37.455 17.8533 39.1736C10.9331 38.3829 5.1446 33.822 2.59675 27.6001ZM22.1824 39.169C23.0814 38.4665 24.1976 37.4502 25.3184 36.0527C26.7983 34.2067 28.4591 31.4356 29.4406 27.6H37.4034C34.86 33.8113 29.0868 38.3668 22.1824 39.169Z" fill="#461E96"/>
</svg>
