<svg width="80" height="80" viewBox="0 0 80 80" fill="none" xmlns="http://www.w3.org/2000/svg">
<path d="M72.3333 22.333H27.4168C26.8643 22.333 26.4167 22.781 26.4167 23.3332V28.3332C26.4167 28.8853 26.8643 29.3333 27.4168 29.3333H28.111V39.833H7.66691C7.11433 39.833 6.66675 40.281 6.66675 40.8332V45.8332C6.66675 46.3858 7.11433 46.8333 7.66691 46.8333H8.16333V72.333C8.16333 72.8856 8.61092 73.3332 9.1635 73.3332H70.6708C71.2233 73.3332 71.6709 72.8856 71.6709 72.333V29.3333H72.3333C72.8859 29.3333 73.3335 28.8853 73.3335 28.3332V23.3332C73.3335 22.781 72.8858 22.333 72.3333 22.333ZM28.4169 24.3333H71.3331V27.333H28.4169V24.3333ZM8.667 41.8333H28.1109V44.833H8.66708L8.667 41.8333ZM10.1636 46.8333H28.1109V71.3328H10.1636V46.8333ZM58.865 71.3328H50.8915V53.5H58.865V71.3328ZM48.8912 71.3328H40.9168V53.5H48.8912V71.3328ZM69.6705 71.3328H60.8653V52.4998C60.8653 51.9473 60.4177 51.4997 59.8651 51.4997H39.9166C39.364 51.4997 38.9164 51.9473 38.9164 52.4998V71.3328H30.1112V29.3333H69.6704L69.6705 71.3328ZM22.4624 51.4997H15.8129C15.2603 51.4997 14.8127 51.9473 14.8127 52.4998V62.4998C14.8127 63.0524 15.2603 63.5 15.8129 63.5H22.4624C23.015 63.5 23.4626 63.0524 23.4626 62.4998V52.4998C23.4626 51.9473 23.015 51.4997 22.4624 51.4997ZM21.4623 61.4997H16.8131V53.5H21.4623V61.4997ZM46.0168 40.2069H47.8598L49.9869 43.6202L47.647 47.3748H49.9989L51.1629 45.5071L52.3269 47.3748H54.6788L52.3389 43.6202L54.6786 39.866H52.3267L51.1629 41.7333L50.0668 39.9744C51.4301 39.4691 52.4097 38.1643 52.4097 36.6241C52.4097 34.6486 50.8066 33.0413 48.8358 33.0413H45.0192C44.468 33.0413 44.0216 33.4893 44.0216 34.0415V44.3715H46.0168V40.2069ZM46.0168 35.0418H48.8358C49.7068 35.0418 50.4145 35.7514 50.4145 36.6242C50.4145 37.4969 49.7067 38.2066 48.8358 38.2066H46.0168V35.0418Z" fill="#461E96"/>
</svg>
