<svg width="40" height="41" viewBox="0 0 40 41" fill="none" xmlns="http://www.w3.org/2000/svg">
<circle cx="20" cy="20.9473" r="19.5" fill="#EFEFEF" stroke="white"/>
<path d="M27.7767 22.5887L24.1016 21.5404L23.7598 20.4206H25.8647C25.9962 20.4206 26.1188 20.3538 26.1901 20.2432C27.7836 17.7744 27.9409 13.1036 26.508 10.8137C25.9262 9.88421 25.1268 9.41291 24.2195 9.44966C23.2066 8.19316 21.8475 7.53076 20.2752 7.53076H20.2736C18.1585 7.53141 15.9322 8.74896 14.4639 10.7084C13.0001 12.6616 12.6425 16.857 14.6166 20.2289C14.6859 20.3476 14.8133 20.4206 14.9508 20.4206H17.211L16.9 21.542L13.2234 22.5909C11.956 22.9529 11.0708 24.1222 11.0708 25.4344V29.1643C11.0708 29.2652 11.1102 29.3624 11.1809 29.4346C13.6494 31.9687 16.959 33.3641 20.5 33.3641C24.0411 33.3641 27.3506 31.9687 29.8192 29.4346C29.8899 29.3624 29.9293 29.2652 29.9293 29.1643V25.4322C29.9293 24.12 29.0441 22.9507 27.7767 22.5887ZM20.4994 26.0515H20.4987C20.0551 26.0515 19.6668 25.8336 19.4609 25.469C19.0125 24.6762 17.9037 22.3895 17.6277 21.8181L18.089 20.1544C18.1056 20.1653 18.8902 20.6731 18.8902 20.6731C19.3793 20.9876 19.9396 21.1447 20.5 21.1447C21.0604 21.1447 21.6208 20.9873 22.1099 20.6731C22.1099 20.6731 22.8714 20.1822 22.8761 20.1791L23.3777 21.8229C23.0958 22.4035 21.9875 24.6779 21.5394 25.4687C21.3326 25.8339 20.9437 26.0515 20.4994 26.0515ZM15.1769 19.6455C13.8471 17.2061 13.4908 13.2996 15.0839 11.1732C16.3891 9.43184 18.426 8.30638 20.2739 8.30573H20.2752C21.6633 8.30573 22.8585 8.92098 23.7317 10.0846C23.815 10.1953 23.9487 10.253 24.0884 10.2368C24.7932 10.1516 25.387 10.4835 25.8509 11.2248C27.0949 13.2126 26.9779 17.3805 25.6484 19.6455H23.568C24.3896 18.91 24.9736 17.9524 25.2428 16.8654C26.1053 16.2872 26.2289 15.34 26.2289 14.3962C26.2289 13.7023 25.7209 13.1378 25.0962 13.1378H23.9994V13.9129H25.0962C25.2901 13.9129 25.4538 14.1341 25.4538 14.3962C25.4538 15.3012 25.3295 15.9327 24.7108 16.2835C24.615 16.338 24.5465 16.4307 24.5232 16.5385C24.2533 17.7837 23.5147 18.8484 22.4435 19.5369L21.6904 20.0212C20.9676 20.4864 20.0323 20.4861 19.3096 20.0212L18.5562 19.5369C17.4853 18.8485 16.7467 17.7837 16.4762 16.5354C16.3103 15.7998 16.3787 15.2048 16.439 14.6797C16.443 14.6444 16.4454 14.613 16.4493 14.5785C19.7244 14.4665 23.1983 13.5163 24.1032 11.4878L23.3956 11.1721C22.7579 12.6019 19.7236 13.964 15.1574 13.8038L15.1303 14.5783C15.3081 14.5846 15.4886 14.5866 15.6696 14.5877C15.6694 14.5889 15.6693 14.59 15.6692 14.5912C15.6052 15.1485 15.5254 15.8419 15.7193 16.7028C15.9689 17.8542 16.5678 18.8688 17.4274 19.6403L17.426 19.6455H15.1769ZM11.8459 25.4344C11.8459 24.4663 12.4996 23.6035 13.4359 23.3363L17.0082 22.3173C17.3757 23.0766 18.3554 25.0889 18.7861 25.8506C19.0687 26.3501 19.5498 26.6811 20.1125 26.7868V32.5796C16.981 32.4833 14.0638 31.2263 11.8459 29.0054V25.4344ZM29.1541 29.0054C26.9362 31.2263 24.019 32.4833 20.8876 32.5796V26.7866C21.45 26.6808 21.9308 26.3501 22.2136 25.8509C22.6456 25.0889 23.6305 23.0757 23.9992 22.3171L27.5642 23.3341C28.5004 23.6012 29.1541 24.464 29.1541 25.4322V29.0054Z" fill="#461E96"/>
</svg>
