<svg width="18" height="18" viewBox="0 0 18 18" fill="none" xmlns="http://www.w3.org/2000/svg">
<g clip-path="url(#clip0_753_3764)">
<path d="M12.7503 9.75027L9.75027 16.5003C9.15353 16.5003 8.58123 16.2632 8.15928 15.8413C7.73732 15.4193 7.50027 14.847 7.50027 14.2503V11.2503H3.25527C3.03784 11.2527 2.82247 11.2079 2.62409 11.1189C2.42571 11.0298 2.24906 10.8987 2.10637 10.7346C1.96369 10.5706 1.85839 10.3774 1.79776 10.1686C1.73714 9.95976 1.72264 9.74025 1.75527 9.52527L2.79027 2.77527C2.84451 2.41759 3.02619 2.09157 3.30184 1.85727C3.57748 1.62297 3.92852 1.49618 4.29027 1.50027H12.7503M12.7503 9.75027V1.50027M12.7503 9.75027H14.7528C15.1772 9.75778 15.5897 9.60917 15.9118 9.33266C16.234 9.05614 16.4434 8.67098 16.5003 8.25027V3.00027C16.4434 2.57957 16.234 2.1944 15.9118 1.91788C15.5897 1.64137 15.1772 1.49276 14.7528 1.50027H12.7503" stroke="#3B3B3B" stroke-width="1.5" stroke-linecap="round" stroke-linejoin="round"/>
</g>
<defs>
<clipPath id="clip0_753_3764">
<rect width="18" height="18" fill="white"/>
</clipPath>
</defs>
</svg>
