<svg width="15" height="12" viewBox="0 0 15 12" fill="none" xmlns="http://www.w3.org/2000/svg">
<path d="M8.00695 0.274719L4.34701 3.70439C4.10257 3.93345 3.96384 4.24918 3.96384 4.57729V10.7619C3.96384 11.4428 4.55841 12 5.28512 12H11.2309C11.7594 12 12.235 11.7028 12.4465 11.2509L14.6001 6.53976C15.1551 5.31399 14.1971 3.95203 12.7768 3.95203H9.04416L9.67177 1.11666C9.73783 0.807124 9.63873 0.491396 9.4009 0.268529C9.01113 -0.0905348 8.39013 -0.0905348 8.00695 0.274719ZM1.32128 12C2.04798 12 2.64256 11.4428 2.64256 10.7619V5.80925C2.64256 5.12827 2.04798 4.5711 1.32128 4.5711C0.594576 4.5711 0 5.12827 0 5.80925V10.7619C0 11.4428 0.594576 12 1.32128 12Z" fill="#461E96"/>
</svg>
