<svg width="22" height="22" viewBox="0 0 22 22" fill="none" xmlns="http://www.w3.org/2000/svg">
<circle cx="11" cy="11" r="11" fill="#461E96"/>
<path d="M12.007 4.27472L8.34701 7.70439C8.10257 7.93345 7.96384 8.24918 7.96384 8.57729V14.7619C7.96384 15.4428 8.55841 16 9.28512 16H15.2309C15.7594 16 16.235 15.7028 16.4465 15.2509L18.6001 10.5398C19.1551 9.31399 18.1971 7.95203 16.7768 7.95203H13.0442L13.6718 5.11666C13.7378 4.80712 13.6387 4.4914 13.4009 4.26853C13.0111 3.90947 12.3901 3.90947 12.007 4.27472ZM5.32128 16C6.04798 16 6.64256 15.4428 6.64256 14.7619V9.80925C6.64256 9.12827 6.04798 8.5711 5.32128 8.5711C4.59458 8.5711 4 9.12827 4 9.80925V14.7619C4 15.4428 4.59458 16 5.32128 16Z" fill="white"/>
</svg>
