<svg width="15" height="12" viewBox="0 0 15 12" fill="none" xmlns="http://www.w3.org/2000/svg">
<path d="M8.34884 0.639564L8.34886 0.639577L8.35194 0.636633C8.54026 0.457125 8.86083 0.45241 9.06056 0.634826C9.17116 0.739385 9.2112 0.876676 9.1831 1.01077C9.183 1.01128 9.18289 1.01179 9.18278 1.0123L8.55597 3.84397L8.42138 4.45202H9.04416H12.7768C13.8842 4.45202 14.529 5.48315 14.145 6.33282C14.1449 6.33306 14.1448 6.3333 14.1446 6.33354L11.9927 11.0408C11.8673 11.3071 11.5746 11.5 11.2309 11.5H5.28512C4.80345 11.5 4.46384 11.1366 4.46384 10.7619V4.57729C4.46384 4.3909 4.54278 4.20617 4.6889 4.06924L8.34884 0.639564ZM2.14256 10.7619C2.14256 11.1366 1.80294 11.5 1.32128 11.5C0.839615 11.5 0.5 11.1366 0.5 10.7619V5.80925C0.5 5.43452 0.839615 5.0711 1.32128 5.0711C1.80294 5.0711 2.14256 5.43452 2.14256 5.80925V10.7619Z" stroke="black"/>
</svg>
