<svg width="15" height="12" viewBox="0 0 15 12" fill="none" xmlns="http://www.w3.org/2000/svg">
<path d="M6.41141 11.3604L6.4114 11.3604L6.40831 11.3634C6.22 11.5429 5.89943 11.5476 5.6997 11.3652C5.5891 11.2606 5.54906 11.1233 5.57715 10.9892C5.57726 10.9887 5.57736 10.9882 5.57747 10.9877L6.20428 8.15603L6.33887 7.54798L5.71609 7.54798L1.98348 7.54798C0.87605 7.54798 0.231243 6.51685 0.615281 5.66718C0.61539 5.66694 0.615499 5.6667 0.615608 5.66646L2.76752 0.959175C2.89297 0.69292 3.18565 0.5 3.52938 0.5L9.47514 0.5C9.9568 0.5 10.2964 0.863419 10.2964 1.23815L10.2964 7.42271C10.2964 7.6091 10.2175 7.79383 10.0714 7.93076L6.41141 11.3604ZM12.6177 1.23815C12.6177 0.863419 12.9573 0.5 13.439 0.5C13.9206 0.5 14.2603 0.863419 14.2603 1.23815L14.2603 6.19075C14.2603 6.56548 13.9206 6.9289 13.439 6.9289C12.9573 6.9289 12.6177 6.56548 12.6177 6.19075L12.6177 1.23815Z" stroke="black"/>
</svg>
