<svg width="22" height="22" viewBox="0 0 22 22" fill="none" xmlns="http://www.w3.org/2000/svg">
<circle cx="11" cy="11" r="11" transform="rotate(-180 11 11)" fill="#461E96"/>
<path d="M9.99305 17.7253L13.653 14.2956C13.8974 14.0665 14.0362 13.7508 14.0362 13.4227L14.0362 7.23815C14.0362 6.55717 13.4416 6 12.7149 6L6.76912 6C6.24061 6 5.76495 6.29716 5.55355 6.74908L3.39986 11.4602C2.84492 12.686 3.80285 14.048 5.22323 14.048L8.95584 14.048L8.32823 16.8833C8.26217 17.1929 8.36127 17.5086 8.5991 17.7315C8.98887 18.0905 9.60987 18.0905 9.99305 17.7253ZM16.6787 6C15.952 6 15.3574 6.55717 15.3574 7.23815L15.3574 12.1908C15.3574 12.8717 15.952 13.4289 16.6787 13.4289C17.4054 13.4289 18 12.8717 18 12.1908V7.23815C18 6.55717 17.4054 6 16.6787 6Z" fill="white"/>
</svg>
