<svg width="15" height="12" viewBox="0 0 15 12" fill="none" xmlns="http://www.w3.org/2000/svg">
<path d="M6.75281 11.7253L10.4128 8.29561C10.6572 8.06655 10.7959 7.75082 10.7959 7.42271L10.7959 1.23815C10.7959 0.557167 10.2014 -3.26743e-07 9.47465 -3.26743e-07L3.52889 -3.26743e-07C3.00038 -3.26743e-07 2.52472 0.297155 2.31331 0.74908L0.159625 5.46024C-0.395312 6.68601 0.562616 8.04797 1.98299 8.04797L5.71561 8.04797L5.088 10.8833C5.02193 11.1929 5.12103 11.5086 5.35886 11.7315C5.74864 12.0905 6.36964 12.0905 6.75281 11.7253ZM13.4385 -3.26743e-07C12.7118 -3.26743e-07 12.1172 0.557167 12.1172 1.23815L12.1172 6.19075C12.1172 6.87173 12.7118 7.4289 13.4385 7.4289C14.1652 7.4289 14.7598 6.87173 14.7598 6.19075L14.7598 1.23815C14.7598 0.557167 14.1652 -3.26743e-07 13.4385 -3.26743e-07Z" fill="#461E96"/>
</svg>
