<svg width="18" height="18" viewBox="0 0 18 18" fill="none" xmlns="http://www.w3.org/2000/svg">
<path d="M17.1429 4.42857V15.2857C17.1429 15.7404 16.9622 16.1764 16.6408 16.4979C16.3193 16.8194 15.8832 17 15.4286 17M15.4286 17C14.9739 17 14.5379 16.8194 14.2164 16.4979C13.8949 16.1764 13.7143 15.7404 13.7143 15.2857V2.14286C13.7143 1.83975 13.5939 1.54906 13.3795 1.33474C13.1652 1.12041 12.8745 1 12.5714 1H1.14286C0.839753 1 0.549062 1.12041 0.334735 1.33474C0.120408 1.54906 0 1.83975 0 2.14286V15.2857C0 15.7404 0.180612 16.1764 0.502103 16.4979C0.823593 16.8194 1.25963 17 1.71429 17H15.4286ZM2.85714 11.2857H10.8571M2.85714 13.5714H7.42857M3.42857 3.85714H10.2857C10.6013 3.85714 10.8571 4.11298 10.8571 4.42857V7.85714C10.8571 8.17273 10.6013 8.42857 10.2857 8.42857H3.42857C3.11298 8.42857 2.85714 8.17273 2.85714 7.85714V4.42857C2.85714 4.11298 3.11298 3.85714 3.42857 3.85714Z" stroke="#3B3B3B" stroke-linecap="round" stroke-linejoin="round"/>
</svg>
