<svg width="36" height="36" viewBox="0 0 36 36" fill="none" xmlns="http://www.w3.org/2000/svg">
<path d="M1.125 9.75H34.875M3.375 3H32.625C33.8676 3 34.875 4.00736 34.875 5.25V30.75C34.875 31.9926 33.8676 33 32.625 33H3.375C2.13236 33 1.125 31.9926 1.125 30.75V5.25C1.125 4.00736 2.13236 3 3.375 3ZM6.765 14.625H11.265V19.125H6.765V14.625ZM6.765 23.625H11.265V28.125H6.765V23.625ZM15.765 14.625H20.265V19.125H15.765V14.625ZM15.765 23.625H20.265V28.125H15.765V23.625ZM24.765 14.625H29.265V19.125H24.765V14.625ZM24.765 23.625H29.265V28.125H24.765V23.625Z" stroke="#3B3B3B" stroke-width="1.5" stroke-linecap="round" stroke-linejoin="round"/>
</svg>
