<svg width="24" height="24" viewBox="0 0 24 24" fill="none" xmlns="http://www.w3.org/2000/svg">
<path d="M6.75 14.25H8.25M15.75 14.25H17.25M11.25 14.25H12.75M4.5 17.25H6M9 17.25H10.5M13.5 17.25H15M18 17.25H19.5M6.75 20.25H17.25M6.75 11.25V9.75C6.75 8.55653 7.22411 7.41193 8.06802 6.56802C8.91193 5.72411 10.0565 5.25 11.25 5.25H15C16.1935 5.25 17.3381 4.77589 18.182 3.93198C19.0259 3.08807 19.5 1.94347 19.5 0.75M3.75 11.25H20.25C21.9069 11.25 23.25 12.5931 23.25 14.25V20.25C23.25 21.9069 21.9069 23.25 20.25 23.25H3.75C2.09315 23.25 0.75 21.9069 0.75 20.25V14.25C0.75 12.5931 2.09315 11.25 3.75 11.25Z" stroke="black" stroke-width="1.5" stroke-linecap="round" stroke-linejoin="round"/>
</svg>
