<svg width="57" height="57" viewBox="0 0 57 57" fill="none" xmlns="http://www.w3.org/2000/svg">
<rect x="10.7789" y="0.5" width="35.4426" height="29.8361" rx="3.5" fill="white" stroke="#666666"/>
<rect x="5.17212" y="5.17236" width="46.6557" height="39.1803" rx="3.5" fill="white" stroke="#666666"/>
<rect x="0.5" y="9.84399" width="56" height="46.6557" rx="3.5" fill="white" stroke="#666666"/>
<path d="M23.6996 34.9351L21.1317 34.201L20.7392 33.1957C20.6946 33.0815 20.6004 32.9936 20.4831 32.9572C20.3653 32.9207 20.2385 32.9398 20.1368 33.0086L19.7245 33.2883L19.3109 31.8657C20.1641 31.1036 20.7722 30.1117 21.0557 28.9851C21.7409 28.5924 22.0879 27.7208 22.0879 26.3895C22.0879 26.0515 21.9693 25.7461 21.7797 25.5134C22.0641 23.4662 22.2419 21.9738 21.3719 20.9165C20.5843 19.9592 19.0018 19.4818 16.0801 19.3199C15.0272 19.2611 14.5971 19.5476 14.2819 19.7561C14.0807 19.8896 13.9802 19.9573 13.7186 19.9365C12.3711 19.8349 11.3616 20.0682 10.7171 20.6312C10.2572 21.0328 10.0034 21.5851 9.96264 22.2728C9.90782 23.2 9.8914 24.2443 10.1869 24.9612C10.2638 25.1483 10.3765 25.3136 10.5139 25.4527C10.2951 25.692 10.159 26.0234 10.159 26.3895C10.159 27.7208 10.506 28.5925 11.1912 28.9852C11.4747 30.1117 12.0828 31.1036 12.936 31.8658L12.5224 33.2884L12.1101 33.0086C12.0087 32.9398 11.8816 32.9208 11.7638 32.9572C11.6466 32.9937 11.5523 33.0815 11.5077 33.1958L11.1152 34.201L8.54727 34.9351C7.22811 35.3127 6.30652 36.5334 6.30652 37.9034V41.7995C6.30652 41.9046 6.34757 42.0054 6.42076 42.0806C8.9908 44.7271 12.4368 46.1845 16.1234 46.1845C19.81 46.1845 23.256 44.7271 25.8261 42.0806C25.8993 42.0054 25.9403 41.9046 25.9403 41.7995V37.9034C25.9403 36.5334 25.0188 35.3127 23.6996 34.9351ZM20.1713 33.9603L20.3735 34.4774L18.8452 36.5468L17.88 35.5149L20.1713 33.9603ZM11.9348 28.6221C11.9066 28.4921 11.8163 28.3842 11.6929 28.334C11.2106 28.137 10.966 27.4828 10.966 26.3894C10.966 26.0957 11.1715 25.8764 11.355 25.8764H11.7529V25.0694H11.4122C11.1979 25.0161 11.0193 24.8641 10.9328 24.6538C10.6981 24.084 10.7214 23.1076 10.7683 22.3204C10.7959 21.8501 10.9529 21.4964 11.248 21.2386C11.7165 20.8292 12.5511 20.6561 13.6575 20.7411C14.1982 20.7816 14.4773 20.5941 14.7272 20.429C14.9964 20.2506 15.2495 20.081 16.0355 20.1255C18.6735 20.2716 20.1272 20.6736 20.7487 21.4291C21.3614 22.1736 21.2525 23.4074 21.0234 25.0912C20.985 25.087 20.4657 25.0783 20.4657 25.0783C20.5111 24.8086 20.5616 24.4931 20.5787 24.3309C20.6512 23.6498 20.4313 23.0774 19.9595 22.719C19.3715 22.2722 18.444 22.218 17.5391 22.5765C17.3363 22.6569 17.113 22.761 16.8727 22.8735C15.5965 23.4697 14.0081 24.2123 12.4122 22.8231L11.8823 23.4314C13.8742 25.1664 15.8835 24.2261 17.2145 23.6043C17.4387 23.4994 17.6472 23.4017 17.8366 23.3265C18.4706 23.0747 19.1131 23.0887 19.4713 23.3615C19.7165 23.5475 19.819 23.8449 19.7763 24.2456C19.7513 24.4805 19.6332 25.1665 19.5895 25.411C19.5688 25.5285 19.601 25.6493 19.6775 25.7408C19.7543 25.8324 19.8672 25.8853 19.9867 25.8853H20.9086C21.1106 25.8853 21.281 26.1161 21.281 26.3894C21.281 27.4828 21.0363 28.137 20.5541 28.334C20.4306 28.3842 20.3403 28.492 20.3121 28.6221C20.0311 29.9197 19.2622 31.0296 18.1469 31.747L17.3629 32.2518C16.6097 32.7363 15.6372 32.7365 14.8841 32.2516L14.1001 31.747C12.9848 31.0296 12.2159 29.9198 11.9348 28.6221ZM13.6221 32.3962C13.6363 32.4055 14.4474 32.9301 14.4474 32.9301C14.9566 33.2581 15.54 33.4219 16.1234 33.4219C16.7068 33.4215 17.2906 33.2577 17.7995 32.9302C17.7995 32.9302 18.6106 32.4055 18.6248 32.3962L19.0226 33.7645L17.0183 35.1283C17.0078 35.1354 17.0279 35.1204 17.0183 35.1283C16.7399 35.3567 16.5027 35.7278 16.2958 36.2857C16.2377 36.4421 16.0113 36.4422 15.953 36.2859C15.7454 35.7288 15.5075 35.3576 15.2288 35.1285C15.219 35.1205 15.2393 35.1357 15.2288 35.1285L13.2242 33.7645L13.6221 32.3962ZM12.0757 33.9603L14.367 35.5149L13.4017 36.5468L11.8734 34.4774L12.0757 33.9603ZM25.1334 41.6343C22.7291 44.0497 19.536 45.3774 16.1235 45.3774C12.711 45.3774 9.5178 44.0497 7.11356 41.6343V37.9034C7.11356 36.8915 7.79448 35.9899 8.76924 35.7105L11.2562 34.9996L13.0409 37.4161C13.1119 37.5127 13.2225 37.5724 13.342 37.5793C13.3499 37.5796 13.3574 37.58 13.3653 37.58C13.4766 37.58 13.5833 37.534 13.6598 37.4519L14.9643 36.0573C15.0386 36.1854 15.1122 36.3444 15.1858 36.5379C15.3342 36.9283 15.7026 37.1801 16.1241 37.1801H16.1251C16.5473 37.1798 16.9157 36.927 17.0634 36.5359C17.1365 36.3432 17.2094 36.1851 17.283 36.0576L18.5871 37.4519C18.6636 37.534 18.7703 37.5799 18.8816 37.5799C18.8895 37.5799 18.897 37.5796 18.9049 37.5793C19.0244 37.5724 19.1351 37.5126 19.206 37.4161L20.9908 34.9995L23.4777 35.7105C24.4525 35.9899 25.1334 36.8914 25.1334 37.9033V41.6343Z" fill="#666666"/>
<rect x="30.5155" y="19.0001" width="16.1234" height="1.00771" rx="0.503857" fill="#666666"/>
<rect x="28.5" y="23.0308" width="21.162" height="1.00771" rx="0.503857" fill="#666666"/>
<rect x="32.5309" y="33.1073" width="16.1234" height="1.00771" rx="0.503857" fill="#666666"/>
<rect x="29.5077" y="41.1693" width="16.1234" height="1.00771" rx="0.503857" fill="#666666"/>
<rect x="28.5" y="45.2003" width="16.1234" height="1.00771" rx="0.503857" fill="#666666"/>
<rect x="29.5077" y="37.1389" width="7.054" height="1.00771" rx="0.503857" fill="#666666"/>
<rect x="42.6077" y="37.1389" width="7.054" height="1.00771" rx="0.503857" fill="#666666"/>
<circle cx="39.4585" cy="38.0207" r="0.88175" fill="#666666"/>
<circle cx="48.5281" cy="41.0434" r="0.88175" fill="#666666"/>
</svg>
