<svg width="63" height="57" viewBox="0 0 63 57" fill="none" xmlns="http://www.w3.org/2000/svg">
<rect x="19.9825" y="39.91" width="5.45703" height="16.5898" rx="0.5" stroke="#3B3B3B"/>
<rect x="28.666" y="0.5" width="5.90234" height="5.56836" rx="0.5" stroke="#3B3B3B"/>
<rect x="28.666" y="9.62878" width="5.90234" height="5.56836" rx="0.5" stroke="#3B3B3B"/>
<rect x="28.666" y="18.7578" width="5.90234" height="5.56836" rx="0.5" stroke="#3B3B3B"/>
<rect x="37.6846" y="0.946289" width="18.2578" height="0.55664" rx="0.27832" fill="#3B3B3B" stroke="#3B3B3B" stroke-width="0.55664"/>
<rect x="37.6846" y="5.06543" width="9.35156" height="0.55664" rx="0.27832" fill="#3B3B3B" stroke="#3B3B3B" stroke-width="0.55664"/>
<rect x="37.6846" y="10.298" width="18.2578" height="0.55664" rx="0.27832" fill="#3B3B3B" stroke="#3B3B3B" stroke-width="0.55664"/>
<rect x="37.6846" y="19.2041" width="18.2578" height="0.55664" rx="0.27832" fill="#3B3B3B" stroke="#3B3B3B" stroke-width="0.55664"/>
<rect x="37.6846" y="14.4171" width="9.35156" height="0.55664" rx="0.27832" fill="#3B3B3B" stroke="#3B3B3B" stroke-width="0.55664"/>
<rect x="37.6846" y="23.3232" width="9.35156" height="0.55664" rx="0.27832" fill="#3B3B3B" stroke="#3B3B3B" stroke-width="0.55664"/>
<rect x="0.5" y="35.457" width="5.45703" height="21.043" rx="0.5" stroke="#3B3B3B"/>
<rect x="28.666" y="35.457" width="5.45703" height="21.043" rx="0.5" stroke="#3B3B3B"/>
<rect x="10.8535" y="31.1152" width="5.45703" height="25.3847" rx="0.5" stroke="#3B3B3B"/>
<circle cx="11.7451" cy="11.7451" r="11.2451" stroke="#3B3B3B"/>
<line x1="11.7442" y1="2.18557e-08" x2="11.7442" y2="23.4902" stroke="#3B3B3B"/>
<line x1="11.2442" y1="11.1895" x2="23.4903" y2="11.1895" stroke="#3B3B3B"/>
<path d="M35.463 36.1771L33.087 27.7771H34.539L36.303 34.3411L38.211 27.7771H39.483L41.379 34.3411L43.143 27.7771H44.595L42.219 36.1771H40.623L38.847 30.0451L37.059 36.1771H35.463Z" fill="#3B3B3B"/>
<path d="M27.5759 37.9349C29.0331 41.2403 31.7927 43.8523 35.2477 45.1963C38.7026 46.5403 42.5698 46.5061 45.9987 45.1013C49.4275 43.6965 52.137 41.0362 53.5311 37.7056C54.9252 34.3749 54.8898 30.6468 53.4326 27.3414C51.9754 24.0359 49.2158 21.4239 45.7608 20.0799C42.3059 18.736 38.4386 18.7701 35.0098 20.1749C31.581 21.5797 28.8715 24.24 27.4774 27.5707C26.0832 30.9013 26.1187 34.6294 27.5759 37.9349Z" fill="white"/>
<path d="M50.4364 42.2128L61.3312 52.7171L50.4364 42.2128Z" fill="white"/>
<path d="M50.4364 42.2128L61.3312 52.7171M27.5759 37.9349C29.0331 41.2403 31.7927 43.8523 35.2477 45.1963C38.7026 46.5403 42.5698 46.5061 45.9987 45.1013C49.4275 43.6965 52.137 41.0362 53.5311 37.7056C54.9252 34.3749 54.8898 30.6468 53.4326 27.3414C51.9754 24.0359 49.2158 21.4239 45.7608 20.0799C42.3059 18.736 38.4386 18.7701 35.0098 20.1749C31.581 21.5797 28.8715 24.24 27.4774 27.5707C26.0832 30.9013 26.1187 34.6294 27.5759 37.9349Z" stroke="#3B3B3B" stroke-width="2" stroke-linecap="round" stroke-linejoin="round"/>
</svg>
