<svg width="48" height="49" viewBox="0 0 48 49" fill="none" xmlns="http://www.w3.org/2000/svg">
<path d="M24 4.5C12.9721 4.5 4 13.4719 4 24.5C4 35.5281 12.9721 44.5 24 44.5C35.0279 44.5 44 35.5279 44 24.5C44 13.4721 35.0279 4.5 24 4.5ZM14.8999 24.5C14.8999 22.3034 15.1312 20.3448 15.5079 18.6001H23.3999V30.3999H15.5078C15.1311 28.6552 14.8999 26.6966 14.8999 24.5ZM23.3999 17.3999H15.7961C16.7273 13.9428 18.2334 11.4365 19.5781 9.74805C21.035 7.9189 22.5042 6.7699 23.4 6.1657L23.3999 17.3999ZM24.6001 6.16575C25.4961 6.7701 26.9653 7.9191 28.4219 9.74805C29.7666 11.4365 31.2727 13.9428 32.2039 17.3999H24.6001L24.6001 6.16575ZM23.3999 31.6001V42.8341C22.5039 42.2298 21.0347 41.0809 19.5781 39.2519C18.2333 37.5635 16.7273 35.0573 15.7961 31.6001H23.3999ZM24.6001 31.6001H32.2039C31.2727 35.0573 29.7666 37.5635 28.4219 39.2519C26.9653 41.0809 25.4961 42.2298 24.6001 42.8341V31.6001ZM24.6001 30.3999V18.6001H32.4921C32.8688 20.3448 33.1001 22.3034 33.1001 24.5C33.1001 26.6966 32.8688 28.6552 32.4921 30.3999H24.6001ZM33.7165 18.6001H41.8462C42.4617 20.457 42.7998 22.4393 42.7998 24.5C42.7998 26.5607 42.4617 28.5429 41.8462 30.3999H33.7164C34.0784 28.6399 34.3003 26.6824 34.3003 24.5C34.3003 22.327 34.0819 20.369 33.7165 18.6001ZM41.4033 17.3999H33.44C31.8309 11.148 28.3294 7.54485 26.1465 5.82635C33.0668 6.6169 38.8555 11.1779 41.4033 17.3999ZM21.8177 5.83095C20.9187 6.5334 19.8025 7.5497 18.6816 8.9473C17.2017 10.7931 15.541 13.5643 14.5595 17.4H6.5967C9.14015 11.1887 14.9132 6.63315 21.8177 5.83095ZM6.1538 18.6001H14.2836C13.9215 20.3601 13.6997 22.3176 13.6997 24.5C13.6997 26.673 13.918 28.631 14.2835 30.3999H6.1538C5.5383 28.5429 5.2002 26.5607 5.2002 24.5C5.2002 22.4393 5.5383 20.457 6.1538 18.6001ZM6.59675 31.6001H14.56C16.1691 37.8519 19.6704 41.455 21.8533 43.1736C14.9331 42.3829 9.1446 37.822 6.59675 31.6001ZM26.1824 43.169C27.0814 42.4665 28.1976 41.4502 29.3184 40.0527C30.7983 38.2067 32.4591 35.4356 33.4406 31.6H41.4034C38.86 37.8113 33.0868 42.3668 26.1824 43.169Z" fill="#461E96"/>
</svg>
