<svg width="76" height="57" viewBox="0 0 76 57" fill="none" xmlns="http://www.w3.org/2000/svg">
<path d="M32.616 42L30.24 33.6H31.692L33.456 40.164L35.364 33.6H36.636L38.532 40.164L40.296 33.6H41.748L39.372 42H37.776L36 35.868L34.212 42H32.616Z" fill="#3B3B3B"/>
<path d="M43.1036 43.5016L50.8743 51M26.7982 40.4478C27.8376 42.8074 29.8059 44.672 32.2701 45.6313C34.7344 46.5907 37.4927 46.5663 39.9383 45.5635C42.3839 44.5608 44.3165 42.6617 45.3108 40.2842C46.3052 37.9066 46.2799 35.2454 45.2406 32.8858C44.2012 30.5263 42.2329 28.6617 39.7687 27.7023C37.3044 26.7429 34.5461 26.7673 32.1005 27.7701C29.6549 28.7729 27.7223 30.6719 26.7279 33.0495C25.7336 35.427 25.7588 38.0883 26.7982 40.4478Z" stroke="#3B3B3B" stroke-width="2" stroke-linecap="round" stroke-linejoin="round"/>
<rect x="0.5" y="0.5" width="22.8769" height="7.42337" rx="1.5" stroke="#3B3B3B"/>
<rect x="26.735" y="0.5" width="14.3284" height="7.42337" rx="1.5" stroke="#3B3B3B"/>
<rect x="44.4216" y="0.5" width="9.16977" height="7.42337" rx="1.5" stroke="#3B3B3B"/>
<rect x="56.9496" y="0.5" width="18.0131" height="7.42337" rx="1.5" stroke="#3B3B3B"/>
<rect x="62.5503" y="11.4663" width="12.4123" height="7.42337" rx="1.5" stroke="#3B3B3B"/>
<rect x="19.6604" y="11.4663" width="12.4123" height="7.42337" rx="1.5" stroke="#3B3B3B"/>
<rect x="1.0896" y="11.4663" width="12.4123" height="7.42337" rx="1.5" stroke="#3B3B3B"/>
<rect x="35.873" y="11.4663" width="22.8769" height="7.42337" rx="1.5" stroke="#3B3B3B"/>
<rect x="6.88892" y="19.5984" width="1.25253" height="1.39988" rx="0.626263" fill="#3B3B3B"/>
<rect x="6.88892" y="23.0981" width="1.25253" height="2.09982" rx="0.626263" fill="#3B3B3B"/>
<rect x="6.88892" y="26.5979" width="1.25253" height="2.79976" rx="0.626263" fill="#3B3B3B"/>
<rect x="-0.27813" y="0.27813" width="22.3168" height="0.55626" rx="0.27813" transform="matrix(-1 0 0 1 74.3168 30.0973)" fill="black" stroke="#3B3B3B" stroke-width="0.55626"/>
<rect x="-0.27813" y="0.27813" width="22.3168" height="0.55626" rx="0.27813" transform="matrix(-1 0 0 1 74.3168 45.8315)" fill="black" stroke="#3B3B3B" stroke-width="0.55626"/>
<rect x="0.377621" y="0.377621" width="16.0915" height="0.755242" rx="0.377621" transform="matrix(6.63296e-08 1 1 -2.88059e-08 73.3625 30.0973)" fill="black" stroke="#3B3B3B" stroke-width="0.755242"/>
<rect x="1.27813" y="30.4546" width="20.4437" height="0.55626" rx="0.27813" fill="black" stroke="#3B3B3B" stroke-width="0.55626"/>
<rect x="1.27813" y="46.189" width="20.4437" height="0.55626" rx="0.27813" fill="black" stroke="#3B3B3B" stroke-width="0.55626"/>
<rect x="2.04014" y="30.5232" width="16.1533" height="0.693396" rx="0.346698" transform="rotate(90 2.04014 30.5232)" fill="black" stroke="#3B3B3B" stroke-width="0.693396"/>
</svg>
