<svg width="24" height="24" viewBox="0 0 24 24" fill="none" xmlns="http://www.w3.org/2000/svg">
<path d="M5.24976 7.5H18.7498M5.24976 12H15.7498M21.7498 18.75H11.2498L5.24976 23.25V18.75H2.24976C1.85193 18.75 1.4704 18.592 1.1891 18.3107C0.907791 18.0294 0.749756 17.6478 0.749756 17.25V2.25C0.749756 1.85218 0.907791 1.47064 1.1891 1.18934C1.4704 0.908035 1.85193 0.75 2.24976 0.75H21.7498C22.1476 0.75 22.5291 0.908035 22.8104 1.18934C23.0917 1.47064 23.2498 1.85218 23.2498 2.25V17.25C23.2498 17.6478 23.0917 18.0294 22.8104 18.3107C22.5291 18.592 22.1476 18.75 21.7498 18.75Z" stroke="#3B3B3B" stroke-width="1.5" stroke-linecap="round" stroke-linejoin="round"/>
</svg>
