<svg width="24" height="24" viewBox="0 0 24 24" fill="none" xmlns="http://www.w3.org/2000/svg">
<path d="M17.2498 6.35901V22.51C17.2498 22.7089 17.1707 22.8997 17.0301 23.0403C16.8894 23.181 16.6987 23.26 16.4998 23.26H4.49976C4.30084 23.26 4.11008 23.181 3.96943 23.0403C3.82877 22.8997 3.74976 22.7089 3.74976 22.51V6.76001M3.74976 6.76001C4.54541 6.76001 5.30847 6.44394 5.87108 5.88133C6.43369 5.31872 6.74976 4.55566 6.74976 3.76001C6.74976 2.96436 6.43369 2.2013 5.87108 1.63869C5.30847 1.07608 4.54541 0.76001 3.74976 0.76001M3.74976 6.76001H15.7498C16.5454 6.76001 17.3085 6.44394 17.8711 5.88133C18.4337 5.31872 18.7498 4.55566 18.7498 3.76001C18.7498 2.96436 18.4337 2.2013 17.8711 1.63869C17.3085 1.07608 16.5454 0.76001 15.7498 0.76001H3.74976M3.74976 0.76001C2.95411 0.76001 2.19104 1.07608 1.62844 1.63869C1.06583 2.2013 0.749756 2.96436 0.749756 3.76001V15.76M8.99976 11.26L10.4998 12.76L12.7498 10.51M8.99976 16.51L10.4998 18.01L12.7498 15.76M20.2498 20.26L21.7498 23.26L23.2498 20.26V10.51C23.2498 10.1122 23.0917 9.73065 22.8104 9.44935C22.5291 9.16804 22.1476 9.01001 21.7498 9.01001C21.3519 9.01001 20.9704 9.16804 20.6891 9.44935C20.4078 9.73065 20.2498 10.1122 20.2498 10.51V20.26Z" stroke="#3B3B3B" stroke-width="1.5" stroke-linecap="round" stroke-linejoin="round"/>
</svg>
