<svg width="18" height="18" viewBox="0 0 18 18" fill="none" xmlns="http://www.w3.org/2000/svg">
<path d="M12.2688 5.1687L12.6504 5.40711L7.9878 12.8686C7.94677 12.9346 7.87464 12.9745 7.797 12.9745C7.71936 12.9745 7.64722 12.9344 7.6062 12.8686L5.27509 9.13787L5.65669 8.89946L7.797 12.3248L12.2688 5.1687ZM16.5 9C16.5 13.1354 13.1354 16.5 9 16.5C4.86456 16.5 1.5 13.1354 1.5 9C1.5 4.86456 4.86456 1.5 9 1.5C13.1354 1.5 16.5 4.86446 16.5 9ZM16.0499 9C16.0499 5.11267 12.8873 1.95008 9 1.95008C5.11267 1.95008 1.95008 5.11267 1.95008 9C1.95008 12.8873 5.11267 16.0499 9 16.0499C12.8873 16.0499 16.0499 12.8873 16.0499 9Z" fill="#429445"/>
</svg>
