<svg width="24" height="24" viewBox="0 0 24 24" fill="none" xmlns="http://www.w3.org/2000/svg">
<path d="M3.74878 9.00004C3.74877 7.43547 4.19366 5.90316 5.03154 4.58185C5.86942 3.26055 7.06574 2.20475 8.48095 1.53761C9.89616 0.870469 11.4719 0.619506 13.0243 0.813995C14.5768 1.00848 16.0419 1.64041 17.2488 2.63604M19.6868 6.00003C20.0595 6.95624 20.2501 7.97374 20.2488 9.00003V15C20.2488 17.1879 19.3797 19.2862 17.8327 20.8333C16.2858 22.3805 14.1876 23.2498 11.9998 23.25C11.4967 23.2501 10.9946 23.2045 10.4998 23.114M6.75074 21.365C5.81149 20.5916 5.05531 19.6197 4.53658 18.5191C4.01785 17.4186 3.74947 16.2167 3.75074 15V12.75M15.7488 15V9.00003C15.7488 8.30361 15.5549 7.62095 15.1887 7.02854C14.8226 6.43613 14.2987 5.95738 13.6758 5.64593C13.0529 5.33448 12.3556 5.20264 11.662 5.26518C10.9684 5.32773 10.3059 5.58218 9.74878 6.00003M8.24878 9.00003V15C8.24929 15.6226 8.40469 16.2353 8.70097 16.7829C8.99725 17.3305 9.42511 17.7958 9.946 18.1368C10.4669 18.4779 11.0644 18.684 11.6848 18.7365C12.3052 18.7891 12.9289 18.6865 13.4998 18.438M11.9988 9.75003V14.25" stroke="#3B3B3B" stroke-width="1.5" stroke-linecap="round" stroke-linejoin="round"/>
</svg>
